<svg width="142" height="101" viewBox="0 0 142 101" fill="none" xmlns="http://www.w3.org/2000/svg">
<path d="M95.1236 5.33004C107.074 3.18098 126.834 -3.05122 137.713 6.2362C145.964 13.28 131.427 21.4256 126.516 23.6474C120.852 26.2097 114.644 27.8832 108.457 28.5019C106.006 28.747 102.639 28.5479 107.292 26.9485C113.572 24.7898 121.4 22.6689 128.004 24.6183C141.178 28.507 143.462 43.8974 137.778 54.8453C126.503 76.5594 99.5046 86.9789 76.8709 90.8975C49.7043 95.601 26.2565 89.9663 0.753418 82.2243" stroke="black" stroke-width="0.7" stroke-linecap="round"/>
<path d="M0.744629 81.7925L19.5091 72.8223" stroke="black" stroke-width="0.7" stroke-linecap="round"/>
<path d="M0.384277 82.0342C3.42813 88.7947 6.6194 93.9318 10.5424 99.9097" stroke="black" stroke-width="0.7" stroke-linecap="round"/>
</svg>
