<svg width="169" height="64" viewBox="0 0 169 64" fill="none" xmlns="http://www.w3.org/2000/svg">
<path d="M168.489 33.5638C168.489 15.0618 153.49 0.0629883 134.988 0.0629883L32.9077 0.0629883C15.2771 0.0629883 0.984619 14.3554 0.984619 31.9861C0.984619 49.6167 15.2771 63.9091 32.9077 63.9091L168.489 63.9091V33.5638Z" fill="#4E9FFF"/>
<path d="M40.9008 33.5088H51.8131V30.7187H40.9008V33.5088ZM50.015 25.3866V39.647H53.3011V25.3866H50.015ZM39.4437 25.3866V39.647H42.7298V25.3866H39.4437ZM61.2361 35.4309C61.2361 34.9349 61.3601 34.5112 61.6081 34.1598C61.8561 33.7878 62.2178 33.5088 62.6931 33.3228C63.1685 33.1161 63.7575 33.0128 64.4602 33.0128C65.3282 33.0128 66.0929 33.1265 66.7542 33.3538C67.4156 33.5605 68.0666 33.9015 68.7073 34.3768V32.6098C68.542 32.4031 68.2423 32.1654 67.8083 31.8968C67.3743 31.6281 66.8266 31.3904 66.1652 31.1838C65.5245 30.9771 64.7909 30.8737 63.9642 30.8737C62.7241 30.8737 61.6391 31.0598 60.7091 31.4318C59.7997 31.8038 59.097 32.3411 58.601 33.0438C58.105 33.7465 57.857 34.5835 57.857 35.5549C57.857 36.5262 58.074 37.3426 58.508 38.0039C58.9627 38.6446 59.5621 39.1303 60.3061 39.461C61.0708 39.7916 61.9181 39.957 62.8481 39.957C63.8402 39.957 64.7392 39.7916 65.5452 39.461C66.3512 39.1096 66.9919 38.6136 67.4673 37.9729C67.9426 37.3116 68.1803 36.5262 68.1803 35.6169L67.6843 33.9738C67.6843 34.8212 67.5189 35.4929 67.1882 35.9889C66.8576 36.4849 66.4029 36.8466 65.8242 37.0739C65.2455 37.3012 64.5945 37.4149 63.8712 37.4149C63.3958 37.4149 62.9515 37.3426 62.5381 37.1979C62.1455 37.0326 61.8251 36.8052 61.5771 36.5159C61.3498 36.2266 61.2361 35.8649 61.2361 35.4309ZM60.5231 29.1377C60.7504 28.993 61.0708 28.8174 61.4841 28.6107C61.9181 28.3833 62.4141 28.187 62.9721 28.0217C63.5508 27.8563 64.1812 27.7737 64.8632 27.7737C65.6485 27.7737 66.3099 27.9597 66.8472 28.3317C67.4053 28.683 67.6843 29.1894 67.6843 29.8507V39.647H70.9703V29.4787C70.9703 28.528 70.712 27.722 70.1953 27.0606C69.6993 26.3993 69.007 25.9033 68.1183 25.5726C67.2296 25.2213 66.1962 25.0456 65.0182 25.0456C63.7368 25.0456 62.6001 25.2316 61.6081 25.6036C60.6161 25.9756 59.7997 26.358 59.159 26.7506L60.5231 29.1377ZM81.4421 35.6169H86.3092V32.6718H82.0001L81.4421 35.6169ZM84.5422 25.3866V39.647H87.9212V25.3866H84.5422ZM79.241 25.3866H75.8619V29.4787C75.8619 30.8634 76.0273 32.0104 76.3579 32.9198C76.6886 33.8292 77.257 34.5112 78.063 34.9659C78.8897 35.3999 80.016 35.6169 81.4421 35.6169L82.0001 32.6718C81.3181 32.6718 80.7704 32.5685 80.357 32.3618C79.9644 32.1551 79.675 31.8348 79.489 31.4008C79.3237 30.9461 79.241 30.3571 79.241 29.6337V25.3866ZM95.9122 35.4309C95.9122 34.9349 96.0362 34.5112 96.2842 34.1598C96.5322 33.7878 96.8939 33.5088 97.3692 33.3228C97.8446 33.1161 98.4336 33.0128 99.1363 33.0128C100.004 33.0128 100.769 33.1265 101.43 33.3538C102.092 33.5605 102.743 33.9015 103.383 34.3768V32.6098C103.218 32.4031 102.918 32.1654 102.484 31.8968C102.05 31.6281 101.503 31.3904 100.841 31.1838C100.201 30.9771 99.4669 30.8737 98.6403 30.8737C97.4002 30.8737 96.3152 31.0598 95.3852 31.4318C94.4758 31.8038 93.7731 32.3411 93.2771 33.0438C92.7811 33.7465 92.5331 34.5835 92.5331 35.5549C92.5331 36.5262 92.7501 37.3426 93.1841 38.0039C93.6388 38.6446 94.2381 39.1303 94.9822 39.461C95.7468 39.7916 96.5942 39.957 97.5242 39.957C98.5163 39.957 99.4153 39.7916 100.221 39.461C101.027 39.1096 101.668 38.6136 102.143 37.9729C102.619 37.3116 102.856 36.5262 102.856 35.6169L102.36 33.9738C102.36 34.8212 102.195 35.4929 101.864 35.9889C101.534 36.4849 101.079 36.8466 100.5 37.0739C99.9216 37.3012 99.2706 37.4149 98.5473 37.4149C98.0719 37.4149 97.6276 37.3426 97.2142 37.1979C96.8215 37.0326 96.5012 36.8052 96.2532 36.5159C96.0259 36.2266 95.9122 35.8649 95.9122 35.4309ZM95.1992 29.1377C95.4265 28.993 95.7468 28.8174 96.1602 28.6107C96.5942 28.3833 97.0902 28.187 97.6482 28.0217C98.2269 27.8563 98.8573 27.7737 99.5393 27.7737C100.325 27.7737 100.986 27.9597 101.523 28.3317C102.081 28.683 102.36 29.1894 102.36 29.8507V39.647H105.646V29.4787C105.646 28.528 105.388 27.722 104.871 27.0606C104.375 26.3993 103.683 25.9033 102.794 25.5726C101.906 25.2213 100.872 25.0456 99.6943 25.0456C98.4129 25.0456 97.2762 25.2316 96.2842 25.6036C95.2922 25.9756 94.4758 26.358 93.8351 26.7506L95.1992 29.1377ZM109.143 25.3866V28.3317H118.164V25.3866H109.143ZM112.026 26.0066V39.647H115.312V26.0066H112.026ZM122.064 25.3866V39.647H125.443V25.3866H122.064ZM124.42 33.0748H128.512C129.276 33.0748 129.845 33.2401 130.217 33.5708C130.609 33.9015 130.806 34.3768 130.806 34.9969C130.806 35.3895 130.713 35.7305 130.527 36.0199C130.361 36.3092 130.103 36.5262 129.752 36.6709C129.421 36.8156 129.008 36.8879 128.512 36.8879H124.42V39.647H128.853C129.845 39.647 130.733 39.4713 131.519 39.12C132.304 38.7686 132.924 38.2416 133.379 37.5389C133.834 36.8362 134.061 35.9785 134.061 34.9659C134.061 33.4365 133.555 32.3204 132.542 31.6178C131.55 30.8944 130.32 30.5327 128.853 30.5327H124.42V33.0748Z" fill="white"/>
</svg>
