<svg width="168" height="64" viewBox="0 0 168 64" fill="none" xmlns="http://www.w3.org/2000/svg">
<path d="M167.56 33.6414C167.56 15.1394 152.561 0.140625 134.059 0.140625L31.9787 0.140625C14.3481 0.140625 0.0556641 14.4331 0.0556641 32.0637C0.0556641 49.6943 14.3481 63.9868 31.9787 63.9868L167.56 63.9868V33.6414Z" fill="#0075FF"/>
<path d="M39.9718 33.5865H50.8841V30.7964H39.9718V33.5865ZM49.0861 25.4642V39.7246H52.3721V25.4642H49.0861ZM38.5148 25.4642V39.7246H41.8009V25.4642H38.5148ZM60.3071 35.5085C60.3071 35.0125 60.4311 34.5888 60.6791 34.2375C60.9272 33.8655 61.2888 33.5865 61.7642 33.4004C62.2395 33.1938 62.8285 33.0904 63.5312 33.0904C64.3992 33.0904 65.1639 33.2041 65.8253 33.4314C66.4866 33.6381 67.1376 33.9791 67.7783 34.4545V32.6874C67.613 32.4808 67.3133 32.2431 66.8793 31.9744C66.4453 31.7057 65.8976 31.4681 65.2363 31.2614C64.5956 31.0547 63.8619 30.9514 63.0352 30.9514C61.7952 30.9514 60.7102 31.1374 59.7801 31.5094C58.8708 31.8814 58.1681 32.4188 57.6721 33.1214C57.1761 33.8241 56.9281 34.6611 56.9281 35.6325C56.9281 36.6039 57.1451 37.4202 57.5791 38.0816C58.0337 38.7223 58.6331 39.2079 59.3771 39.5386C60.1418 39.8693 60.9892 40.0346 61.9192 40.0346C62.9112 40.0346 63.8102 39.8693 64.6163 39.5386C65.4223 39.1873 66.063 38.6912 66.5383 38.0506C67.0136 37.3892 67.2513 36.6039 67.2513 35.6945L66.7553 34.0515C66.7553 34.8988 66.59 35.5705 66.2593 36.0665C65.9286 36.5625 65.4739 36.9242 64.8953 37.1515C64.3166 37.3789 63.6656 37.4926 62.9422 37.4926C62.4669 37.4926 62.0225 37.4202 61.6092 37.2755C61.2165 37.1102 60.8962 36.8829 60.6481 36.5935C60.4208 36.3042 60.3071 35.9425 60.3071 35.5085ZM59.5941 29.2153C59.8215 29.0707 60.1418 28.895 60.5551 28.6883C60.9892 28.461 61.4852 28.2646 62.0432 28.0993C62.6219 27.934 63.2522 27.8513 63.9342 27.8513C64.7196 27.8513 65.3809 28.0373 65.9183 28.4093C66.4763 28.7607 66.7553 29.267 66.7553 29.9284V39.7246H70.0414V29.5563C70.0414 28.6057 69.7831 27.7996 69.2664 27.1383C68.7704 26.4769 68.078 25.9809 67.1893 25.6502C66.3006 25.2989 65.2673 25.1232 64.0892 25.1232C62.8079 25.1232 61.6712 25.3092 60.6791 25.6812C59.6871 26.0533 58.8708 26.4356 58.2301 26.8283L59.5941 29.2153ZM80.5131 35.6945H85.3802V32.7494H81.0711L80.5131 35.6945ZM83.6132 25.4642V39.7246H86.9923V25.4642H83.6132ZM78.3121 25.4642H74.933V29.5563C74.933 30.941 75.0983 32.0881 75.429 32.9974C75.7597 33.9068 76.328 34.5888 77.134 35.0435C77.9607 35.4775 79.0871 35.6945 80.5131 35.6945L81.0711 32.7494C80.3891 32.7494 79.8414 32.6461 79.4281 32.4394C79.0354 32.2327 78.7461 31.9124 78.5601 31.4784C78.3947 31.0237 78.3121 30.4347 78.3121 29.7114V25.4642ZM94.9832 35.5085C94.9832 35.0125 95.1072 34.5888 95.3552 34.2375C95.6032 33.8655 95.9649 33.5865 96.4403 33.4004C96.9156 33.1938 97.5046 33.0904 98.2073 33.0904C99.0753 33.0904 99.84 33.2041 100.501 33.4314C101.163 33.6381 101.814 33.9791 102.454 34.4545V32.6874C102.289 32.4808 101.989 32.2431 101.555 31.9744C101.121 31.7057 100.574 31.4681 99.9124 31.2614C99.2717 31.0547 98.538 30.9514 97.7113 30.9514C96.4713 30.9514 95.3862 31.1374 94.4562 31.5094C93.5469 31.8814 92.8442 32.4188 92.3482 33.1214C91.8522 33.8241 91.6041 34.6611 91.6041 35.6325C91.6041 36.6039 91.8212 37.4202 92.2552 38.0816C92.7098 38.7223 93.3092 39.2079 94.0532 39.5386C94.8179 39.8693 95.6652 40.0346 96.5953 40.0346C97.5873 40.0346 98.4863 39.8693 99.2923 39.5386C100.098 39.1873 100.739 38.6912 101.214 38.0506C101.69 37.3892 101.927 36.6039 101.927 35.6945L101.431 34.0515C101.431 34.8988 101.266 35.5705 100.935 36.0665C100.605 36.5625 100.15 36.9242 99.5714 37.1515C98.9927 37.3789 98.3417 37.4926 97.6183 37.4926C97.143 37.4926 96.6986 37.4202 96.2853 37.2755C95.8926 37.1102 95.5722 36.8829 95.3242 36.5935C95.0969 36.3042 94.9832 35.9425 94.9832 35.5085ZM94.2702 29.2153C94.4976 29.0707 94.8179 28.895 95.2312 28.6883C95.6652 28.461 96.1613 28.2646 96.7193 28.0993C97.298 27.934 97.9283 27.8513 98.6103 27.8513C99.3957 27.8513 100.057 28.0373 100.594 28.4093C101.152 28.7607 101.431 29.267 101.431 29.9284V39.7246H104.717V29.5563C104.717 28.6057 104.459 27.7996 103.942 27.1383C103.446 26.4769 102.754 25.9809 101.865 25.6502C100.977 25.2989 99.9434 25.1232 98.7653 25.1232C97.484 25.1232 96.3473 25.3092 95.3552 25.6812C94.3632 26.0533 93.5469 26.4356 92.9062 26.8283L94.2702 29.2153ZM108.214 25.4642V28.4093H117.235V25.4642H108.214ZM111.097 26.0843V39.7246H114.383V26.0843H111.097ZM121.135 25.4642V39.7246H124.514V25.4642H121.135ZM123.491 33.1524H127.583C128.347 33.1524 128.916 33.3178 129.288 33.6485C129.68 33.9791 129.877 34.4545 129.877 35.0745C129.877 35.4672 129.784 35.8082 129.598 36.0975C129.432 36.3869 129.174 36.6039 128.823 36.7485C128.492 36.8932 128.079 36.9655 127.583 36.9655H123.491V39.7246H127.924C128.916 39.7246 129.804 39.5489 130.59 39.1976C131.375 38.8463 131.995 38.3192 132.45 37.6166C132.905 36.9139 133.132 36.0562 133.132 35.0435C133.132 33.5141 132.626 32.3981 131.613 31.6954C130.621 30.972 129.391 30.6104 127.924 30.6104H123.491V33.1524Z" fill="white"/>
</svg>
