<svg width="31" height="33" viewBox="0 0 31 33" fill="none" xmlns="http://www.w3.org/2000/svg">
<path fill-rule="evenodd" clip-rule="evenodd" d="M25.0708 6.65105C25.3834 6.51557 25.7255 6.46885 26.0615 6.51574C26.3976 6.56263 26.7153 6.70142 26.9816 6.91766C27.2479 7.13391 27.453 7.4197 27.5757 7.74529C27.6983 8.07089 27.734 8.42439 27.6789 8.76899L24.8102 26.6881C24.5319 28.4166 22.6903 29.4078 21.151 28.5468C19.8634 27.8265 17.9509 26.7167 16.2307 25.5588C15.3706 24.9791 12.7359 23.123 13.0597 21.8022C13.338 20.6729 17.765 16.4292 20.2947 13.9062C21.2876 12.915 20.8348 12.3432 19.6623 13.2549C16.7493 15.5188 12.0756 18.9614 10.53 19.9305C9.16646 20.785 8.45561 20.9308 7.60563 20.785C6.05491 20.5192 4.61677 20.1076 3.44298 19.6062C1.85685 18.9288 1.934 16.6832 3.44172 16.0294L25.0708 6.65105Z" fill="#8CD6FF"/>
</svg>
