<svg width="201" height="75" viewBox="0 0 201 75" fill="none" xmlns="http://www.w3.org/2000/svg">
<path d="M98.6507 13.1042H109.062V8.94618H98.6507V13.1042ZM98.6507 22.2852H108.73V18.3268H98.6507V22.2852ZM95.5904 8.94618V32.2313H100.181V8.94618H95.5904ZM117.498 26.2437V16.9297H113.041V26.7094C113.041 28.5279 113.484 29.9582 114.372 31.0005C115.281 32.0428 116.645 32.564 118.463 32.564C119.55 32.564 120.47 32.3422 121.224 31.8987C121.978 31.433 122.599 30.7677 123.087 29.9028V32.2313H127.378V16.9297H123.087V26.2437C123.087 26.8868 122.954 27.4412 122.688 27.9069C122.444 28.3726 122.089 28.7386 121.623 29.0047C121.18 29.2486 120.647 29.3706 120.026 29.3706C119.139 29.3706 118.496 29.1045 118.097 28.5722C117.698 28.0178 117.498 27.2417 117.498 26.2437ZM130.325 16.9297V20.5555H139.772V16.9297H130.325ZM132.953 11.6073V32.2313H137.111V11.6073H132.953ZM147.188 26.2437V16.9297H142.731V26.7094C142.731 28.5279 143.174 29.9582 144.061 31.0005C144.971 32.0428 146.334 32.564 148.153 32.564C149.24 32.564 150.16 32.3422 150.914 31.8987C151.668 31.433 152.289 30.7677 152.777 29.9028V32.2313H157.068V16.9297H152.777V26.2437C152.777 26.8868 152.644 27.4412 152.378 27.9069C152.134 28.3726 151.779 28.7386 151.313 29.0047C150.87 29.2486 150.337 29.3706 149.716 29.3706C148.829 29.3706 148.186 29.1045 147.787 28.5722C147.388 28.0178 147.188 27.2417 147.188 26.2437ZM166.202 16.9297H161.977V32.2313H166.202V16.9297ZM170.693 21.4204L172.655 17.7613C172.345 17.3621 171.935 17.0627 171.425 16.8631C170.937 16.6635 170.416 16.5638 169.861 16.5638C169.063 16.5638 168.287 16.852 167.533 17.4286C166.779 17.983 166.169 18.737 165.703 19.6906C165.237 20.622 165.004 21.6976 165.004 22.9173L166.202 24.1148C166.202 23.383 166.291 22.762 166.468 22.252C166.668 21.7197 166.956 21.3095 167.333 21.0212C167.71 20.7329 168.165 20.5888 168.697 20.5888C169.14 20.5888 169.506 20.6664 169.795 20.8216C170.105 20.9547 170.404 21.1542 170.693 21.4204ZM182.335 32.564C184.176 32.564 185.75 32.2091 187.059 31.4995C188.389 30.7677 189.454 29.681 190.252 28.2396L186.493 27.0753C186.05 27.8071 185.484 28.3616 184.797 28.7386C184.132 29.0934 183.322 29.2708 182.369 29.2708C181.526 29.2708 180.805 29.0823 180.206 28.7053C179.608 28.3283 179.153 27.785 178.843 27.0753C178.554 26.3657 178.41 25.5008 178.41 24.4807C178.432 23.4162 178.587 22.5292 178.876 21.8195C179.186 21.0877 179.619 20.5444 180.173 20.1896C180.75 19.8126 181.459 19.6241 182.302 19.6241C182.989 19.6241 183.588 19.7793 184.098 20.0898C184.608 20.4003 184.996 20.8216 185.263 21.3538C185.551 21.8861 185.695 22.5292 185.695 23.2832C185.695 23.4384 185.651 23.638 185.562 23.8819C185.495 24.1037 185.418 24.2811 185.329 24.4142L186.493 22.884H176.547V25.5452H190.252C190.274 25.4121 190.286 25.2347 190.286 25.0129C190.308 24.7912 190.319 24.5805 190.319 24.3809C190.319 22.7399 190.008 21.3427 189.387 20.1896C188.766 19.0142 187.857 18.1272 186.66 17.5284C185.484 16.9075 184.054 16.597 182.369 16.597C180.683 16.597 179.22 16.9297 177.978 17.5949C176.736 18.2381 175.771 19.1584 175.084 20.3559C174.418 21.5312 174.086 22.9394 174.086 24.5805C174.086 26.1994 174.418 27.6076 175.084 28.8051C175.771 29.9804 176.736 30.9007 177.978 31.566C179.22 32.2313 180.672 32.564 182.335 32.564ZM97.6195 59.4142L94.2265 61.8092C94.7366 62.8959 95.4462 63.9049 96.3554 64.8363C97.2647 65.7677 98.3291 66.5106 99.5488 67.065C100.791 67.5972 102.121 67.8633 103.541 67.8633C104.605 67.8633 105.614 67.697 106.568 67.3644C107.543 67.0539 108.419 66.5993 109.196 66.0005C109.972 65.3796 110.582 64.6256 111.025 63.7386C111.469 62.8515 111.69 61.8425 111.69 60.7115C111.69 59.7135 111.524 58.8376 111.191 58.0836C110.881 57.3074 110.437 56.6421 109.861 56.0877C109.306 55.5111 108.674 55.0233 107.965 54.6241C107.277 54.2249 106.557 53.8923 105.803 53.6261C104.627 53.227 103.651 52.8389 102.875 52.4619C102.099 52.0627 101.523 51.6525 101.146 51.2311C100.769 50.7876 100.58 50.2775 100.58 49.7009C100.58 49.1244 100.813 48.6254 101.279 48.204C101.744 47.7605 102.443 47.5387 103.374 47.5387C104.084 47.5387 104.716 47.6829 105.27 47.9712C105.825 48.2373 106.313 48.6032 106.734 49.0689C107.177 49.5124 107.554 50.0114 107.865 50.5658L111.591 48.5034C111.191 47.6829 110.626 46.8956 109.894 46.1416C109.184 45.3655 108.286 44.7334 107.2 44.2456C106.135 43.7355 104.86 43.4805 103.374 43.4805C101.933 43.4805 100.624 43.7466 99.449 44.2788C98.2959 44.7889 97.3756 45.5318 96.6881 46.5075C96.0228 47.4611 95.6902 48.6032 95.6902 49.9338C95.6902 51.0426 95.9008 51.9962 96.3222 52.7945C96.7435 53.5707 97.2758 54.236 97.9189 54.7904C98.562 55.3226 99.2384 55.7662 99.948 56.121C100.68 56.4536 101.323 56.7197 101.877 56.9193C102.92 57.3185 103.796 57.6955 104.505 58.0503C105.237 58.383 105.78 58.7711 106.135 59.2146C106.512 59.6581 106.701 60.2458 106.701 60.9776C106.701 61.8203 106.401 62.4856 105.803 62.9735C105.204 63.4613 104.428 63.7053 103.474 63.7053C102.654 63.7053 101.888 63.5279 101.179 63.1731C100.469 62.8182 99.8149 62.3193 99.2162 61.6762C98.6396 61.033 98.1074 60.279 97.6195 59.4142ZM115.635 46.0086C115.635 46.696 115.89 47.2726 116.4 47.7383C116.91 48.204 117.52 48.4369 118.23 48.4369C118.939 48.4369 119.538 48.204 120.026 47.7383C120.536 47.2726 120.791 46.696 120.791 46.0086C120.791 45.2989 120.536 44.7224 120.026 44.2788C119.538 43.8131 118.939 43.5803 118.23 43.5803C117.52 43.5803 116.91 43.8131 116.4 44.2788C115.89 44.7224 115.635 45.2989 115.635 46.0086ZM116.101 51.9297V67.2313H120.292V51.9297H116.101ZM148.151 57.4516C148.151 56.2097 147.973 55.1563 147.618 54.2914C147.286 53.4044 146.765 52.7391 146.055 52.2956C145.345 51.8299 144.425 51.597 143.294 51.597C142.252 51.597 141.32 51.8188 140.5 52.2623C139.701 52.7058 139.025 53.36 138.471 54.2249C138.138 53.36 137.606 52.7058 136.874 52.2623C136.142 51.8188 135.211 51.597 134.08 51.597C133.06 51.597 132.184 51.8188 131.452 52.2623C130.72 52.7058 130.132 53.3489 129.689 54.1916V51.9297H125.531V67.2313H129.689V57.9173C129.689 57.252 129.8 56.6865 130.021 56.2208C130.243 55.7329 130.554 55.3781 130.953 55.1563C131.352 54.9124 131.818 54.7904 132.35 54.7904C133.148 54.7904 133.725 55.0565 134.08 55.5888C134.435 56.0988 134.612 56.875 134.612 57.9173V67.2313H138.903V57.9173C138.903 57.252 139.014 56.6865 139.236 56.2208C139.457 55.7329 139.768 55.3781 140.167 55.1563C140.566 54.9124 141.032 54.7904 141.564 54.7904C142.363 54.7904 142.939 55.0565 143.294 55.5888C143.649 56.0988 143.826 56.875 143.826 57.9173V67.2313H148.151V57.4516ZM157.286 74.5495V51.9297H152.961V74.5495H157.286ZM169.86 59.5805C169.86 57.8286 169.516 56.3538 168.828 55.1563C168.141 53.9366 167.232 53.0163 166.101 52.3954C164.992 51.7744 163.794 51.464 162.508 51.464C161.2 51.464 160.058 51.7966 159.082 52.4619C158.128 53.1272 157.385 54.0697 156.853 55.2894C156.343 56.4869 156.088 57.9173 156.088 59.5805C156.088 61.2215 156.343 62.6519 156.853 63.8716C157.385 65.0913 158.128 66.0338 159.082 66.6991C160.058 67.3644 161.2 67.697 162.508 67.697C163.794 67.697 164.992 67.3866 166.101 66.7656C167.232 66.1447 168.141 65.2244 168.828 64.0047C169.516 62.785 169.86 61.3102 169.86 59.5805ZM165.402 59.5805C165.402 60.4897 165.214 61.2659 164.837 61.909C164.46 62.5521 163.95 63.04 163.306 63.3726C162.686 63.7053 161.998 63.8716 161.244 63.8716C160.601 63.8716 159.969 63.7164 159.348 63.4059C158.749 63.0733 158.25 62.5854 157.851 61.9423C157.474 61.2992 157.286 60.5119 157.286 59.5805C157.286 58.6491 157.474 57.8618 157.851 57.2187C158.25 56.5756 158.749 56.0988 159.348 55.7883C159.969 55.4557 160.601 55.2894 161.244 55.2894C161.998 55.2894 162.686 55.4557 163.306 55.7883C163.95 56.121 164.46 56.6089 164.837 57.252C165.214 57.8951 165.402 58.6713 165.402 59.5805ZM173.737 41.285V67.2313H178.061V41.285H173.737ZM190.197 67.564C192.037 67.564 193.612 67.2091 194.92 66.4995C196.251 65.7677 197.315 64.681 198.114 63.2396L194.355 62.0753C193.911 62.8071 193.346 63.3616 192.658 63.7386C191.993 64.0934 191.183 64.2708 190.23 64.2708C189.387 64.2708 188.666 64.0823 188.068 63.7053C187.469 63.3283 187.014 62.785 186.704 62.0753C186.416 61.3657 186.271 60.5008 186.271 59.4807C186.294 58.4162 186.449 57.5292 186.737 56.8195C187.048 56.0877 187.48 55.5444 188.034 55.1896C188.611 54.8126 189.321 54.6241 190.163 54.6241C190.851 54.6241 191.45 54.7793 191.96 55.0898C192.47 55.4003 192.858 55.8216 193.124 56.3538C193.412 56.8861 193.556 57.5292 193.556 58.2832C193.556 58.4384 193.512 58.638 193.423 58.8819C193.357 59.1037 193.279 59.2811 193.19 59.4142L194.355 57.884H184.409V60.5452H198.114C198.136 60.4121 198.147 60.2347 198.147 60.0129C198.169 59.7912 198.18 59.5805 198.18 59.3809C198.18 57.7399 197.87 56.3427 197.249 55.1896C196.628 54.0142 195.719 53.1272 194.521 52.5284C193.346 51.9075 191.915 51.597 190.23 51.597C188.544 51.597 187.081 51.9297 185.839 52.5949C184.597 53.2381 183.632 54.1584 182.945 55.3559C182.28 56.5312 181.947 57.9394 181.947 59.5805C181.947 61.1994 182.28 62.6076 182.945 63.8051C183.632 64.9804 184.597 65.9007 185.839 66.566C187.081 67.2313 188.533 67.564 190.197 67.564Z" fill="black"/>
<path fill-rule="evenodd" clip-rule="evenodd" d="M56.8208 11.6802C57.2513 11.6013 57.6949 11.5601 58.1482 11.5601C62.1893 11.5601 65.4652 14.8361 65.4652 18.8772C65.4652 22.9183 62.1893 26.1942 58.1482 26.1942C57.6949 26.1942 57.2513 26.153 56.8208 26.0741V36.0642C67.4508 36.0642 75.7085 27.9507 75.7085 18.3569C75.7085 8.76314 67.4508 0.649658 56.8208 0.649658V11.6802Z" fill="#4E9FFF"/>
<path fill-rule="evenodd" clip-rule="evenodd" d="M38.7603 11.6125C39.0486 11.5779 39.3422 11.5601 39.6399 11.5601C43.681 11.5601 46.9569 14.8361 46.9569 18.8772C46.9569 22.9183 43.681 26.1942 39.6399 26.1942C39.3422 26.1942 39.0486 26.1764 38.7603 26.1419V36.0642C49.3902 36.0642 57.648 27.9507 57.648 18.3569C57.648 8.76314 49.3902 0.649658 38.7603 0.649658V11.6125Z" fill="#4E9FFF"/>
<path d="M0.984619 56.1325C0.984619 46.3531 8.91243 38.4253 18.6919 38.4253C28.4713 38.4253 36.3991 46.3531 36.3991 56.1325C36.3991 65.912 28.4713 73.8398 18.6919 73.8398H0.984619V56.1325Z" fill="#FEC144"/>
<path d="M38.76 38.4253H74.1745V73.8398L56.4673 61.3576L38.76 73.8398V38.4253Z" fill="#8CD6FF"/>
<path d="M0.984619 0.649658H36.3991V22.5335L18.6919 36.0642L0.984619 22.5335V0.649658Z" fill="#FE7170"/>
</svg>
