<svg width="31" height="32" viewBox="0 0 31 32" fill="none" xmlns="http://www.w3.org/2000/svg">
<path fill-rule="evenodd" clip-rule="evenodd" d="M25.6157 6.23906C25.9294 6.10359 26.2728 6.05686 26.6101 6.10375C26.9475 6.15064 27.2664 6.28943 27.5337 6.50567C27.801 6.72192 28.0069 7.00771 28.13 7.33331C28.2531 7.6589 28.2889 8.0124 28.2336 8.357L25.3541 26.2761C25.0748 28.0046 23.2262 28.9958 21.6811 28.1348C20.3886 27.4145 18.469 26.3047 16.7423 25.1468C15.879 24.5672 13.2343 22.711 13.5594 21.3903C13.8387 20.2609 18.2823 16.0173 20.8216 13.4942C21.8182 12.503 21.3637 11.9312 20.1868 12.843C17.2628 15.1068 12.5716 18.5494 11.0201 19.5185C9.65148 20.373 8.93796 20.5188 8.08477 20.373C6.52822 20.1072 5.08466 19.6956 3.90646 19.1942C2.31435 18.5168 2.3918 16.2713 3.90519 15.6174L25.6157 6.23906Z" fill="#D8D8D8"/>
</svg>
