<svg width="34" height="21" viewBox="0 0 34 21" fill="none" xmlns="http://www.w3.org/2000/svg">
<path fill-rule="evenodd" clip-rule="evenodd" d="M32.4029 1.8694C32.6433 1.08494 32.4029 0.514678 31.3393 0.514678H27.8026C26.9105 0.514678 26.4985 1.01401 26.2581 1.54811C26.2581 1.54811 24.4388 6.11022 21.8982 9.06795C21.0743 9.92334 20.6968 10.2085 20.2505 10.2085C20.01 10.2085 19.7007 9.92334 19.7007 9.13958V1.83255C19.7007 0.906214 19.4266 0.478516 18.6709 0.478516H13.1089C12.5592 0.478516 12.2161 0.906214 12.2161 1.33391C12.2161 2.22478 13.4864 2.43897 13.6235 4.93353V10.3538C13.6235 11.5298 13.4209 11.7447 12.9711 11.7447C11.7697 11.7447 8.85167 7.14713 7.10123 1.90835C6.76087 0.870746 6.4151 0.478516 5.52232 0.478516H1.95189C0.92202 0.478516 0.750488 0.977149 0.750488 1.51195C0.750488 2.47444 1.95189 7.32099 6.34622 13.7358C9.26429 18.1171 13.4182 20.4718 17.1602 20.4718C19.4266 20.4718 19.7007 19.937 19.7007 19.0462V15.7317C19.7007 14.6628 19.9067 14.4848 20.628 14.4848C21.1426 14.4848 22.0698 14.7692 24.164 16.8722C26.5668 19.3668 26.9787 20.5073 28.3179 20.5073H31.8539C32.8837 20.5073 33.3646 19.9725 33.0897 18.9391C32.7811 17.9057 31.6134 16.4091 30.1027 14.6273C29.2789 13.6301 28.043 12.525 27.6655 11.9902C27.1509 11.2774 27.288 10.9922 27.6655 10.351C27.6311 10.351 31.9572 4.0072 32.4029 1.86662" fill="#4E9FFF"/>
</svg>
