<svg width="33" height="21" viewBox="0 0 33 21" fill="none" xmlns="http://www.w3.org/2000/svg">
<path fill-rule="evenodd" clip-rule="evenodd" d="M32.1749 1.45717C32.4162 0.672712 32.1749 0.102447 31.1072 0.102447H27.5573C26.6618 0.102447 26.2483 0.601776 26.007 1.13588C26.007 1.13588 24.1808 5.69799 21.6307 8.65572C20.8037 9.51111 20.4248 9.79625 19.9767 9.79625C19.7354 9.79625 19.4249 9.51111 19.4249 8.72735V1.42031C19.4249 0.493983 19.1497 0.0662842 18.3912 0.0662842H12.8083C12.2565 0.0662842 11.9121 0.493983 11.9121 0.921681C11.9121 1.81255 13.1872 2.02674 13.3248 4.5213V9.94159C13.3248 11.1176 13.1214 11.3325 12.67 11.3325C11.4641 11.3325 8.53499 6.7349 6.77797 1.49612C6.43632 0.458515 6.08926 0.0662842 5.19312 0.0662842H1.60924C0.575498 0.0662842 0.40332 0.564918 0.40332 1.09971C0.40332 2.06221 1.60924 6.90876 6.02011 13.3235C8.94917 17.7048 13.1187 20.0596 16.8748 20.0596C19.1497 20.0596 19.4249 19.5248 19.4249 18.634V15.3195C19.4249 14.2506 19.6317 14.0725 20.3556 14.0725C20.8721 14.0725 21.8029 14.357 23.9049 16.46C26.3168 18.9546 26.7303 20.0951 28.0745 20.0951H31.6238C32.6575 20.0951 33.1402 19.5603 32.8643 18.5269C32.5545 17.4934 31.3825 15.9968 29.8661 14.2151C29.0391 13.2178 27.7986 12.1128 27.4196 11.578C26.9031 10.8651 27.0407 10.58 27.4196 9.93881C27.3851 9.93881 31.7275 3.59497 32.1749 1.45439" fill="#D8D8D8"/>
</svg>
