<svg width="30" height="21" viewBox="0 0 30 21" fill="none" xmlns="http://www.w3.org/2000/svg">
<path d="M11.8597 14.8242L19.3154 10.4028L11.8597 5.98132V14.8242ZM28.4663 3.28424C28.6531 3.97693 28.7823 4.90543 28.8685 6.08448C28.9691 7.26353 29.0122 8.28047 29.0122 9.16475L29.0984 10.4028C29.0984 13.6304 28.8685 16.0033 28.4663 17.5213C28.1072 18.8477 27.274 19.7025 25.9811 20.071C25.3059 20.2626 24.0704 20.3952 22.1742 20.4836C20.3066 20.5868 18.5971 20.631 17.0169 20.631L14.7328 20.7195C8.7136 20.7195 4.96418 20.4836 3.48452 20.071C2.19162 19.7025 1.35841 18.8477 0.999274 17.5213C0.812521 16.8286 0.683231 15.9001 0.597037 14.721C0.496478 13.542 0.453381 12.5251 0.453381 11.6408L0.367188 10.4028C0.367188 7.17511 0.597037 4.80226 0.999274 3.28424C1.35841 1.9578 2.19162 1.10299 3.48452 0.734538C4.15971 0.542942 5.39515 0.410298 7.29141 0.32187C9.15894 0.218703 10.8684 0.174488 12.4487 0.174488L14.7328 0.0860596C20.752 0.0860596 24.5014 0.32187 25.9811 0.734538C27.274 1.10299 28.1072 1.9578 28.4663 3.28424Z" fill="#D8D8D8"/>
</svg>
