<svg width="30" height="22" viewBox="0 0 30 22" fill="none" xmlns="http://www.w3.org/2000/svg">
<path d="M11.9538 15.2362L19.3816 10.8147L11.9538 6.3933V15.2362ZM28.4981 3.69622C28.6842 4.38892 28.813 5.31742 28.8989 6.49647C28.9991 7.67552 29.042 8.69245 29.042 9.57674L29.1279 10.8147C29.1279 14.0424 28.8989 16.4152 28.4981 17.9333C28.1403 19.2597 27.3103 20.1145 26.0222 20.483C25.3496 20.6746 24.1188 20.8072 22.2296 20.8956C20.3691 20.9988 18.666 21.043 17.0917 21.043L14.8161 21.1314C8.81951 21.1314 5.08415 20.8956 3.61004 20.483C2.32198 20.1145 1.4919 19.2597 1.13411 17.9333C0.948058 17.2406 0.819253 16.3121 0.733382 15.133C0.6332 13.954 0.590265 12.937 0.590265 12.0527L0.504395 10.8147C0.504395 7.58709 0.733382 5.21425 1.13411 3.69622C1.4919 2.36979 2.32198 1.51498 3.61004 1.14653C4.28269 0.954929 5.5135 0.822286 7.40265 0.733857C9.26317 0.63069 10.9663 0.586476 12.5406 0.586476L14.8161 0.498047C20.8127 0.498047 24.5481 0.733857 26.0222 1.14653C27.3103 1.51498 28.1403 2.36979 28.4981 3.69622Z" fill="#FE7170"/>
</svg>
