<svg width="221" height="65" viewBox="0 0 221 65" fill="none" xmlns="http://www.w3.org/2000/svg">
<path d="M220.117 34.8668C220.117 16.112 204.913 0.908203 186.159 0.908203L32.3489 0.908203C14.9101 0.908203 0.773087 15.0452 0.773087 32.4841C0.773087 49.9229 14.9101 64.0599 32.349 64.0599L220.117 64.0599V34.8668Z" fill="#4E9FFF"/>
<path d="M38.0709 35.1029C38.0709 36.5962 38.4122 37.9296 39.0949 39.1029C39.7989 40.2549 40.7482 41.1616 41.9429 41.8229C43.1589 42.4629 44.5136 42.7829 46.0069 42.7829C47.5216 42.7829 48.8762 42.4629 50.0709 41.8229C51.2656 41.1616 52.2042 40.2549 52.8869 39.1029C53.5909 37.9296 53.9429 36.5962 53.9429 35.1029C53.9429 33.5882 53.5909 32.2549 52.8869 31.1029C52.2042 29.9509 51.2656 29.0549 50.0709 28.4149C48.8762 27.7536 47.5216 27.4229 46.0069 27.4229C44.5136 27.4229 43.1589 27.7536 41.9429 28.4149C40.7482 29.0549 39.7989 29.9509 39.0949 31.1029C38.4122 32.2549 38.0709 33.5882 38.0709 35.1029ZM41.6229 35.1029C41.6229 34.1856 41.8149 33.3749 42.1989 32.6709C42.5829 31.9669 43.1056 31.4229 43.7669 31.0389C44.4282 30.6549 45.1749 30.4629 46.0069 30.4629C46.8389 30.4629 47.5856 30.6549 48.2469 31.0389C48.9082 31.4229 49.4309 31.9669 49.8149 32.6709C50.1989 33.3749 50.3909 34.1856 50.3909 35.1029C50.3909 36.0202 50.1989 36.8309 49.8149 37.5349C49.4309 38.2176 48.9082 38.7616 48.2469 39.1669C47.5856 39.5509 46.8389 39.7429 46.0069 39.7429C45.1749 39.7429 44.4282 39.5509 43.7669 39.1669C43.1056 38.7616 42.5829 38.2176 42.1989 37.5349C41.8149 36.8309 41.6229 36.0202 41.6229 35.1029ZM56.8054 27.7429V30.7829H66.1174V27.7429H56.8054ZM59.7814 28.3829V42.4629H63.1734V28.3829H59.7814ZM83.1024 27.7429H70.0784V42.4629H73.4704V30.8469H79.7104V42.4629H83.1024V27.7429ZM92.4759 49.5029V27.7429H88.9879V49.5029H92.4759ZM104.668 35.1029C104.668 33.4389 104.337 32.0416 103.676 30.9109C103.015 29.7589 102.14 28.8736 101.052 28.2549C99.9639 27.6362 98.7799 27.3269 97.4999 27.3269C96.2626 27.3269 95.1746 27.6469 94.2359 28.2869C93.3186 28.9269 92.6039 29.8229 92.0919 30.9749C91.5799 32.1269 91.3239 33.5029 91.3239 35.1029C91.3239 36.6816 91.5799 38.0576 92.0919 39.2309C92.6039 40.3829 93.3186 41.2789 94.2359 41.9189C95.1746 42.5376 96.2626 42.8469 97.4999 42.8469C98.7799 42.8469 99.9639 42.5482 101.052 41.9509C102.14 41.3322 103.015 40.4469 103.676 39.2949C104.337 38.1216 104.668 36.7242 104.668 35.1029ZM101.084 35.1029C101.084 36.0842 100.881 36.9162 100.476 37.5989C100.071 38.2816 99.5372 38.8042 98.8759 39.1669C98.2146 39.5296 97.4786 39.7109 96.6679 39.7109C95.9852 39.7109 95.3239 39.5402 94.6839 39.1989C94.0439 38.8362 93.5106 38.3136 93.0839 37.6309C92.6786 36.9482 92.4759 36.1056 92.4759 35.1029C92.4759 34.1002 92.6786 33.2576 93.0839 32.5749C93.5106 31.8922 94.0439 31.3802 94.6839 31.0389C95.3239 30.6762 95.9852 30.4949 96.6679 30.4949C97.4786 30.4949 98.2146 30.6762 98.8759 31.0389C99.5372 31.3802 100.071 31.9029 100.476 32.6069C100.881 33.2896 101.084 34.1216 101.084 35.1029ZM111.736 38.1109C111.736 37.5989 111.864 37.1616 112.12 36.7989C112.376 36.4149 112.749 36.1269 113.24 35.9349C113.73 35.7216 114.338 35.6149 115.064 35.6149C115.96 35.6149 116.749 35.7322 117.432 35.9669C118.114 36.1802 118.786 36.5322 119.448 37.0229V35.1989C119.277 34.9856 118.968 34.7402 118.52 34.4629C118.072 34.1856 117.506 33.9402 116.824 33.7269C116.162 33.5136 115.405 33.4069 114.552 33.4069C113.272 33.4069 112.152 33.5989 111.192 33.9829C110.253 34.3669 109.528 34.9216 109.016 35.6469C108.504 36.3722 108.248 37.2362 108.248 38.2389C108.248 39.2416 108.472 40.0842 108.92 40.7669C109.389 41.4282 110.008 41.9296 110.776 42.2709C111.565 42.6122 112.44 42.7829 113.4 42.7829C114.424 42.7829 115.352 42.6122 116.184 42.2709C117.016 41.9082 117.677 41.3962 118.168 40.7349C118.658 40.0522 118.904 39.2416 118.904 38.3029L118.392 36.6069C118.392 37.4816 118.221 38.1749 117.88 38.6869C117.538 39.1989 117.069 39.5722 116.472 39.8069C115.874 40.0416 115.202 40.1589 114.456 40.1589C113.965 40.1589 113.506 40.0842 113.08 39.9349C112.674 39.7642 112.344 39.5296 112.088 39.2309C111.853 38.9322 111.736 38.5589 111.736 38.1109ZM111 31.6149C111.234 31.4656 111.565 31.2842 111.992 31.0709C112.44 30.8362 112.952 30.6336 113.528 30.4629C114.125 30.2922 114.776 30.2069 115.48 30.2069C116.29 30.2069 116.973 30.3989 117.528 30.7829C118.104 31.1456 118.392 31.6682 118.392 32.3509V42.4629H121.784V31.9669C121.784 30.9856 121.517 30.1536 120.984 29.4709C120.472 28.7882 119.757 28.2762 118.84 27.9349C117.922 27.5722 116.856 27.3909 115.64 27.3909C114.317 27.3909 113.144 27.5829 112.12 27.9669C111.096 28.3509 110.253 28.7456 109.592 29.1509L111 31.6149ZM129.649 34.7829V36.2869H133.905C134.332 36.2869 134.694 36.3296 134.993 36.4149C135.313 36.5002 135.558 36.6282 135.729 36.7989C135.921 36.9696 136.07 37.1616 136.177 37.3749C136.284 37.5669 136.337 37.8016 136.337 38.0789C136.337 38.5696 136.145 38.9962 135.761 39.3589C135.377 39.7216 134.758 39.9029 133.905 39.9029H129.649V42.4629H134.961C136.646 42.4629 137.852 42.0789 138.577 41.3109C139.324 40.5216 139.697 39.5722 139.697 38.4629C139.697 37.5029 139.462 36.7562 138.993 36.2229C138.524 35.6896 137.884 35.3162 137.073 35.1029C136.262 34.8896 135.345 34.7829 134.321 34.7829H129.649ZM129.649 35.4229H134.001C134.918 35.4229 135.75 35.2949 136.497 35.0389C137.265 34.7616 137.884 34.3562 138.353 33.8229C138.822 33.2682 139.057 32.5749 139.057 31.7429C139.057 30.7829 138.822 30.0149 138.353 29.4389C137.884 28.8416 137.265 28.4149 136.497 28.1589C135.75 27.8816 134.918 27.7429 134.001 27.7429H129.649V30.3029H133.585C134.246 30.3029 134.758 30.4629 135.121 30.7829C135.505 31.1029 135.697 31.5082 135.697 31.9989C135.697 32.2336 135.644 32.4576 135.537 32.6709C135.452 32.8842 135.313 33.0762 135.121 33.2469C134.95 33.4176 134.737 33.5456 134.481 33.6309C134.225 33.7162 133.926 33.7589 133.585 33.7589H129.649V35.4229ZM127.633 27.7429V42.4629H131.025V27.7429H127.633ZM157.822 30.9429L157.982 26.6229L144.766 39.2629L144.606 43.5829L157.822 30.9429ZM147.998 27.7429H144.606V43.5829L147.998 39.6469V27.7429ZM157.982 26.6229L154.59 30.5269V42.4629H157.982V26.6229ZM162.093 27.7429V30.7829H171.405V27.7429H162.093ZM165.069 28.3829V42.4629H168.461V28.3829H165.069ZM175.43 27.7429V42.4629H178.918V27.7429H175.43ZM177.862 35.6789H182.086C182.875 35.6789 183.462 35.8496 183.846 36.1909C184.251 36.5322 184.454 37.0229 184.454 37.6629C184.454 38.0682 184.358 38.4202 184.166 38.7189C183.995 39.0176 183.729 39.2416 183.366 39.3909C183.025 39.5402 182.598 39.6149 182.086 39.6149H177.862V42.4629H182.438C183.462 42.4629 184.379 42.2816 185.19 41.9189C186.001 41.5562 186.641 41.0122 187.11 40.2869C187.579 39.5616 187.814 38.6762 187.814 37.6309C187.814 36.0522 187.291 34.9002 186.246 34.1749C185.222 33.4282 183.953 33.0549 182.438 33.0549H177.862V35.6789Z" fill="white"/>
</svg>
