<svg width="220" height="65" viewBox="0 0 220 65" fill="none" xmlns="http://www.w3.org/2000/svg">
<path d="M219.4 34.8668C219.4 16.112 204.196 0.908203 185.441 0.908203L31.6315 0.908203C14.1927 0.908203 0.0556793 15.0452 0.0556793 32.4841C0.0556793 49.9229 14.1927 64.0599 31.6315 64.0599L219.4 64.0599V34.8668Z" fill="#0075FF"/>
<path d="M37.3534 35.1029C37.3534 36.5962 37.6947 37.9296 38.3774 39.1029C39.0814 40.2549 40.0307 41.1616 41.2254 41.8229C42.4414 42.4629 43.796 42.7829 45.2894 42.7829C46.804 42.7829 48.1587 42.4629 49.3534 41.8229C50.548 41.1616 51.4867 40.2549 52.1694 39.1029C52.8734 37.9296 53.2254 36.5962 53.2254 35.1029C53.2254 33.5882 52.8734 32.2549 52.1694 31.1029C51.4867 29.9509 50.548 29.0549 49.3534 28.4149C48.1587 27.7536 46.804 27.4229 45.2894 27.4229C43.796 27.4229 42.4414 27.7536 41.2254 28.4149C40.0307 29.0549 39.0814 29.9509 38.3774 31.1029C37.6947 32.2549 37.3534 33.5882 37.3534 35.1029ZM40.9054 35.1029C40.9054 34.1856 41.0974 33.3749 41.4814 32.6709C41.8654 31.9669 42.388 31.4229 43.0494 31.0389C43.7107 30.6549 44.4574 30.4629 45.2894 30.4629C46.1214 30.4629 46.868 30.6549 47.5294 31.0389C48.1907 31.4229 48.7134 31.9669 49.0974 32.6709C49.4814 33.3749 49.6734 34.1856 49.6734 35.1029C49.6734 36.0202 49.4814 36.8309 49.0974 37.5349C48.7134 38.2176 48.1907 38.7616 47.5294 39.1669C46.868 39.5509 46.1214 39.7429 45.2894 39.7429C44.4574 39.7429 43.7107 39.5509 43.0494 39.1669C42.388 38.7616 41.8654 38.2176 41.4814 37.5349C41.0974 36.8309 40.9054 36.0202 40.9054 35.1029ZM56.0879 27.7429V30.7829H65.3999V27.7429H56.0879ZM59.0639 28.3829V42.4629H62.4559V28.3829H59.0639ZM82.3849 27.7429H69.3609V42.4629H72.7529V30.8469H78.9929V42.4629H82.3849V27.7429ZM91.7584 49.5029V27.7429H88.2704V49.5029H91.7584ZM103.95 35.1029C103.95 33.4389 103.62 32.0416 102.958 30.9109C102.297 29.7589 101.422 28.8736 100.334 28.2549C99.2464 27.6362 98.0624 27.3269 96.7824 27.3269C95.545 27.3269 94.457 27.6469 93.5184 28.2869C92.601 28.9269 91.8864 29.8229 91.3744 30.9749C90.8624 32.1269 90.6064 33.5029 90.6064 35.1029C90.6064 36.6816 90.8624 38.0576 91.3744 39.2309C91.8864 40.3829 92.601 41.2789 93.5184 41.9189C94.457 42.5376 95.545 42.8469 96.7824 42.8469C98.0624 42.8469 99.2464 42.5482 100.334 41.9509C101.422 41.3322 102.297 40.4469 102.958 39.2949C103.62 38.1216 103.95 36.7242 103.95 35.1029ZM100.366 35.1029C100.366 36.0842 100.164 36.9162 99.7584 37.5989C99.353 38.2816 98.8197 38.8042 98.1584 39.1669C97.497 39.5296 96.761 39.7109 95.9504 39.7109C95.2677 39.7109 94.6064 39.5402 93.9664 39.1989C93.3264 38.8362 92.793 38.3136 92.3664 37.6309C91.961 36.9482 91.7584 36.1056 91.7584 35.1029C91.7584 34.1002 91.961 33.2576 92.3664 32.5749C92.793 31.8922 93.3264 31.3802 93.9664 31.0389C94.6064 30.6762 95.2677 30.4949 95.9504 30.4949C96.761 30.4949 97.497 30.6762 98.1584 31.0389C98.8197 31.3802 99.353 31.9029 99.7584 32.6069C100.164 33.2896 100.366 34.1216 100.366 35.1029ZM111.018 38.1109C111.018 37.5989 111.146 37.1616 111.402 36.7989C111.658 36.4149 112.031 36.1269 112.522 35.9349C113.013 35.7216 113.621 35.6149 114.346 35.6149C115.242 35.6149 116.031 35.7322 116.714 35.9669C117.397 36.1802 118.069 36.5322 118.73 37.0229V35.1989C118.559 34.9856 118.25 34.7402 117.802 34.4629C117.354 34.1856 116.789 33.9402 116.106 33.7269C115.445 33.5136 114.687 33.4069 113.834 33.4069C112.554 33.4069 111.434 33.5989 110.474 33.9829C109.535 34.3669 108.81 34.9216 108.298 35.6469C107.786 36.3722 107.53 37.2362 107.53 38.2389C107.53 39.2416 107.754 40.0842 108.202 40.7669C108.671 41.4282 109.29 41.9296 110.058 42.2709C110.847 42.6122 111.722 42.7829 112.682 42.7829C113.706 42.7829 114.634 42.6122 115.466 42.2709C116.298 41.9082 116.959 41.3962 117.45 40.7349C117.941 40.0522 118.186 39.2416 118.186 38.3029L117.674 36.6069C117.674 37.4816 117.503 38.1749 117.162 38.6869C116.821 39.1989 116.351 39.5722 115.754 39.8069C115.157 40.0416 114.485 40.1589 113.738 40.1589C113.247 40.1589 112.789 40.0842 112.362 39.9349C111.957 39.7642 111.626 39.5296 111.37 39.2309C111.135 38.9322 111.018 38.5589 111.018 38.1109ZM110.282 31.6149C110.517 31.4656 110.847 31.2842 111.274 31.0709C111.722 30.8362 112.234 30.6336 112.81 30.4629C113.407 30.2922 114.058 30.2069 114.762 30.2069C115.573 30.2069 116.255 30.3989 116.81 30.7829C117.386 31.1456 117.674 31.6682 117.674 32.3509V42.4629H121.066V31.9669C121.066 30.9856 120.799 30.1536 120.266 29.4709C119.754 28.7882 119.039 28.2762 118.122 27.9349C117.205 27.5722 116.138 27.3909 114.922 27.3909C113.599 27.3909 112.426 27.5829 111.402 27.9669C110.378 28.3509 109.535 28.7456 108.874 29.1509L110.282 31.6149ZM128.931 34.7829V36.2869H133.187C133.614 36.2869 133.977 36.3296 134.275 36.4149C134.595 36.5002 134.841 36.6282 135.011 36.7989C135.203 36.9696 135.353 37.1616 135.459 37.3749C135.566 37.5669 135.619 37.8016 135.619 38.0789C135.619 38.5696 135.427 38.9962 135.043 39.3589C134.659 39.7216 134.041 39.9029 133.187 39.9029H128.931V42.4629H134.243C135.929 42.4629 137.134 42.0789 137.859 41.3109C138.606 40.5216 138.979 39.5722 138.979 38.4629C138.979 37.5029 138.745 36.7562 138.275 36.2229C137.806 35.6896 137.166 35.3162 136.355 35.1029C135.545 34.8896 134.627 34.7829 133.603 34.7829H128.931ZM128.931 35.4229H133.283C134.201 35.4229 135.033 35.2949 135.779 35.0389C136.547 34.7616 137.166 34.3562 137.635 33.8229C138.105 33.2682 138.339 32.5749 138.339 31.7429C138.339 30.7829 138.105 30.0149 137.635 29.4389C137.166 28.8416 136.547 28.4149 135.779 28.1589C135.033 27.8816 134.201 27.7429 133.283 27.7429H128.931V30.3029H132.867C133.529 30.3029 134.041 30.4629 134.403 30.7829C134.787 31.1029 134.979 31.5082 134.979 31.9989C134.979 32.2336 134.926 32.4576 134.819 32.6709C134.734 32.8842 134.595 33.0762 134.403 33.2469C134.233 33.4176 134.019 33.5456 133.763 33.6309C133.507 33.7162 133.209 33.7589 132.867 33.7589H128.931V35.4229ZM126.915 27.7429V42.4629H130.307V27.7429H126.915ZM157.105 30.9429L157.265 26.6229L144.049 39.2629L143.889 43.5829L157.105 30.9429ZM147.281 27.7429H143.889V43.5829L147.281 39.6469V27.7429ZM157.265 26.6229L153.873 30.5269V42.4629H157.265V26.6229ZM161.375 27.7429V30.7829H170.687V27.7429H161.375ZM164.351 28.3829V42.4629H167.743V28.3829H164.351ZM174.712 27.7429V42.4629H178.2V27.7429H174.712ZM177.144 35.6789H181.368C182.158 35.6789 182.744 35.8496 183.128 36.1909C183.534 36.5322 183.736 37.0229 183.736 37.6629C183.736 38.0682 183.64 38.4202 183.448 38.7189C183.278 39.0176 183.011 39.2416 182.648 39.3909C182.307 39.5402 181.88 39.6149 181.368 39.6149H177.144V42.4629H181.72C182.744 42.4629 183.662 42.2816 184.472 41.9189C185.283 41.5562 185.923 41.0122 186.392 40.2869C186.862 39.5616 187.096 38.6762 187.096 37.6309C187.096 36.0522 186.574 34.9002 185.528 34.1749C184.504 33.4282 183.235 33.0549 181.72 33.0549H177.144V35.6789Z" fill="white"/>
</svg>
