<svg width="242" height="64" viewBox="0 0 242 64" fill="none" xmlns="http://www.w3.org/2000/svg">
<path d="M241.605 34.8014C241.605 16.0466 226.402 0.842773 207.647 0.842773L31.806 0.842773C14.3671 0.842773 0.230103 14.9798 0.230103 32.4186C0.230103 49.8575 14.3671 63.9945 31.806 63.9945L241.605 63.9945V34.8014Z" fill="#4E9FFF"/>
<path d="M44.5035 35.0384C46.3808 35.0811 47.8101 34.7611 48.7915 34.0784C49.7728 33.3744 50.2635 32.4891 50.2635 31.4224C50.2635 30.6758 50.0288 29.9931 49.5595 29.3744C49.0901 28.7558 48.4395 28.2651 47.6075 27.9024C46.7755 27.5398 45.8368 27.3584 44.7915 27.3584C43.6821 27.3584 42.6901 27.5718 41.8155 27.9984C40.9621 28.4251 40.2901 29.0011 39.7995 29.7264C39.3301 30.4518 39.0955 31.2731 39.0955 32.1904H42.3915C42.3915 31.8491 42.4768 31.5291 42.6475 31.2304C42.8395 30.9104 43.1168 30.6544 43.4795 30.4624C43.8421 30.2491 44.2901 30.1424 44.8235 30.1424C45.4635 30.1424 45.9755 30.2918 46.3595 30.5904C46.7435 30.8891 46.9355 31.2838 46.9355 31.7744C46.9355 32.2651 46.7435 32.6811 46.3595 33.0224C45.9755 33.3424 45.3568 33.5024 44.5035 33.5024V35.0384ZM44.7275 42.7184C45.8795 42.7184 46.9248 42.5371 47.8635 42.1744C48.8021 41.7904 49.5381 41.2571 50.0715 40.5744C50.6261 39.8704 50.9035 39.0384 50.9035 38.0784C50.9035 36.7131 50.3275 35.6998 49.1755 35.0384C48.0448 34.3558 46.4875 34.0358 44.5035 34.0784V35.7744C45.1648 35.7744 45.7195 35.8598 46.1675 36.0304C46.6368 36.2011 46.9888 36.4464 47.2235 36.7664C47.4581 37.0651 47.5755 37.4491 47.5755 37.9184C47.5755 38.3238 47.4581 38.6864 47.2235 39.0064C47.0101 39.3264 46.6901 39.5718 46.2635 39.7424C45.8368 39.9131 45.3248 39.9984 44.7275 39.9984C43.8101 39.9984 43.1168 39.7638 42.6475 39.2944C42.1995 38.8251 41.9008 38.2598 41.7515 37.5984H38.3595C38.5301 39.1131 39.1595 40.3504 40.2475 41.3104C41.3568 42.2491 42.8501 42.7184 44.7275 42.7184ZM58.3297 38.0464C58.3297 37.5344 58.4577 37.0971 58.7137 36.7344C58.9697 36.3504 59.343 36.0624 59.8337 35.8704C60.3244 35.6571 60.9324 35.5504 61.6577 35.5504C62.5537 35.5504 63.343 35.6678 64.0257 35.9024C64.7084 36.1158 65.3804 36.4678 66.0417 36.9584V35.1344C65.871 34.9211 65.5617 34.6758 65.1137 34.3984C64.6657 34.1211 64.1004 33.8758 63.4177 33.6624C62.7564 33.4491 61.999 33.3424 61.1457 33.3424C59.8657 33.3424 58.7457 33.5344 57.7857 33.9184C56.847 34.3024 56.1217 34.8571 55.6097 35.5824C55.0977 36.3078 54.8417 37.1718 54.8417 38.1744C54.8417 39.1771 55.0657 40.0198 55.5137 40.7024C55.983 41.3638 56.6017 41.8651 57.3697 42.2064C58.159 42.5478 59.0337 42.7184 59.9937 42.7184C61.0177 42.7184 61.9457 42.5478 62.7777 42.2064C63.6097 41.8438 64.271 41.3318 64.7617 40.6704C65.2524 39.9878 65.4977 39.1771 65.4977 38.2384L64.9857 36.5424C64.9857 37.4171 64.815 38.1104 64.4737 38.6224C64.1324 39.1344 63.663 39.5078 63.0657 39.7424C62.4684 39.9771 61.7964 40.0944 61.0497 40.0944C60.559 40.0944 60.1004 40.0198 59.6737 39.8704C59.2684 39.6998 58.9377 39.4651 58.6817 39.1664C58.447 38.8678 58.3297 38.4944 58.3297 38.0464ZM57.5937 31.5504C57.8284 31.4011 58.159 31.2198 58.5857 31.0064C59.0337 30.7718 59.5457 30.5691 60.1217 30.3984C60.719 30.2278 61.3697 30.1424 62.0737 30.1424C62.8844 30.1424 63.567 30.3344 64.1217 30.7184C64.6977 31.0811 64.9857 31.6038 64.9857 32.2864V42.3984H68.3777V31.9024C68.3777 30.9211 68.111 30.0891 67.5777 29.4064C67.0657 28.7238 66.351 28.2118 65.4337 27.8704C64.5164 27.5078 63.4497 27.3264 62.2337 27.3264C60.911 27.3264 59.7377 27.5184 58.7137 27.9024C57.6897 28.2864 56.847 28.6811 56.1857 29.0864L57.5937 31.5504ZM87.059 27.6784H74.035V42.3984H77.427V30.7824H83.667V42.3984H87.059V27.6784ZM106.416 30.8784L106.576 26.5584L93.3605 39.1984L93.2005 43.5184L106.416 30.8784ZM96.5925 27.6784H93.2005V43.5184L96.5925 39.5824V27.6784ZM106.576 26.5584L103.184 30.4624V42.3984H106.576V26.5584ZM115.039 35.0384C115.039 34.1211 115.242 33.3104 115.647 32.6064C116.052 31.9024 116.596 31.3478 117.279 30.9424C117.983 30.5371 118.762 30.3344 119.615 30.3344C120.298 30.3344 120.959 30.4411 121.599 30.6544C122.239 30.8678 122.804 31.1664 123.295 31.5504C123.807 31.9131 124.18 32.3398 124.415 32.8304V28.9904C123.903 28.4998 123.21 28.1051 122.335 27.8064C121.46 27.5078 120.5 27.3584 119.455 27.3584C117.962 27.3584 116.607 27.6891 115.391 28.3504C114.196 28.9904 113.247 29.8864 112.543 31.0384C111.839 32.1904 111.487 33.5238 111.487 35.0384C111.487 36.5318 111.839 37.8651 112.543 39.0384C113.247 40.1904 114.196 41.0971 115.391 41.7584C116.607 42.3984 117.962 42.7184 119.455 42.7184C120.5 42.7184 121.46 42.5691 122.335 42.2704C123.21 41.9718 123.903 41.5664 124.415 41.0544V37.2464C124.18 37.7158 123.818 38.1424 123.327 38.5264C122.836 38.8891 122.271 39.1878 121.631 39.4224C121.012 39.6358 120.34 39.7424 119.615 39.7424C118.762 39.7424 117.983 39.5398 117.279 39.1344C116.596 38.7291 116.052 38.1744 115.647 37.4704C115.242 36.7664 115.039 35.9558 115.039 35.0384ZM132.011 38.0464C132.011 37.5344 132.139 37.0971 132.395 36.7344C132.651 36.3504 133.024 36.0624 133.515 35.8704C134.006 35.6571 134.614 35.5504 135.339 35.5504C136.235 35.5504 137.024 35.6678 137.707 35.9024C138.39 36.1158 139.062 36.4678 139.723 36.9584V35.1344C139.552 34.9211 139.243 34.6758 138.795 34.3984C138.347 34.1211 137.782 33.8758 137.099 33.6624C136.438 33.4491 135.68 33.3424 134.827 33.3424C133.547 33.3424 132.427 33.5344 131.467 33.9184C130.528 34.3024 129.803 34.8571 129.291 35.5824C128.779 36.3078 128.523 37.1718 128.523 38.1744C128.523 39.1771 128.747 40.0198 129.195 40.7024C129.664 41.3638 130.283 41.8651 131.051 42.2064C131.84 42.5478 132.715 42.7184 133.675 42.7184C134.699 42.7184 135.627 42.5478 136.459 42.2064C137.291 41.8438 137.952 41.3318 138.443 40.6704C138.934 39.9878 139.179 39.1771 139.179 38.2384L138.667 36.5424C138.667 37.4171 138.496 38.1104 138.155 38.6224C137.814 39.1344 137.344 39.5078 136.747 39.7424C136.15 39.9771 135.478 40.0944 134.731 40.0944C134.24 40.0944 133.782 40.0198 133.355 39.8704C132.95 39.6998 132.619 39.4651 132.363 39.1664C132.128 38.8678 132.011 38.4944 132.011 38.0464ZM131.275 31.5504C131.51 31.4011 131.84 31.2198 132.267 31.0064C132.715 30.7718 133.227 30.5691 133.803 30.3984C134.4 30.2278 135.051 30.1424 135.755 30.1424C136.566 30.1424 137.248 30.3344 137.803 30.7184C138.379 31.0811 138.667 31.6038 138.667 32.2864V42.3984H142.059V31.9024C142.059 30.9211 141.792 30.0891 141.259 29.4064C140.747 28.7238 140.032 28.2118 139.115 27.8704C138.198 27.5078 137.131 27.3264 135.915 27.3264C134.592 27.3264 133.419 27.5184 132.395 27.9024C131.371 28.2864 130.528 28.6811 129.867 29.0864L131.275 31.5504ZM145.668 27.6784V30.7184H154.98V27.6784H145.668ZM148.644 28.3184V42.3984H152.036V28.3184H148.644ZM159.005 27.6784V42.3984H162.493V27.6784H159.005ZM161.437 35.6144H165.661C166.451 35.6144 167.037 35.7851 167.421 36.1264C167.827 36.4678 168.029 36.9584 168.029 37.5984C168.029 38.0038 167.933 38.3558 167.741 38.6544C167.571 38.9531 167.304 39.1771 166.941 39.3264C166.6 39.4758 166.173 39.5504 165.661 39.5504H161.437V42.3984H166.013C167.037 42.3984 167.955 42.2171 168.765 41.8544C169.576 41.4918 170.216 40.9478 170.685 40.2224C171.155 39.4971 171.389 38.6118 171.389 37.5664C171.389 35.9878 170.867 34.8358 169.821 34.1104C168.797 33.3638 167.528 32.9904 166.013 32.9904H161.437V35.6144ZM179.095 35.0384C179.095 34.1211 179.298 33.3104 179.703 32.6064C180.109 31.9024 180.653 31.3478 181.335 30.9424C182.039 30.5371 182.818 30.3344 183.671 30.3344C184.354 30.3344 185.015 30.4411 185.655 30.6544C186.295 30.8678 186.861 31.1664 187.351 31.5504C187.863 31.9131 188.237 32.3398 188.471 32.8304V28.9904C187.959 28.4998 187.266 28.1051 186.391 27.8064C185.517 27.5078 184.557 27.3584 183.511 27.3584C182.018 27.3584 180.663 27.6891 179.447 28.3504C178.253 28.9904 177.303 29.8864 176.599 31.0384C175.895 32.1904 175.543 33.5238 175.543 35.0384C175.543 36.5318 175.895 37.8651 176.599 39.0384C177.303 40.1904 178.253 41.0971 179.447 41.7584C180.663 42.3984 182.018 42.7184 183.511 42.7184C184.557 42.7184 185.517 42.5691 186.391 42.2704C187.266 41.9718 187.959 41.5664 188.471 41.0544V37.2464C188.237 37.7158 187.874 38.1424 187.383 38.5264C186.893 38.8891 186.327 39.1878 185.687 39.4224C185.069 39.6358 184.397 39.7424 183.671 39.7424C182.818 39.7424 182.039 39.5398 181.335 39.1344C180.653 38.7291 180.109 38.1744 179.703 37.4704C179.298 36.7664 179.095 35.9558 179.095 35.0384ZM196.931 42.3984L201.795 35.1024H198.275L193.219 42.3984H196.931ZM206.467 42.3984V27.6784H202.979V42.3984H206.467ZM204.291 34.1104H199.971C199.438 34.1104 198.99 34.0464 198.627 33.9184C198.265 33.7904 197.987 33.5984 197.795 33.3424C197.625 33.0864 197.539 32.7451 197.539 32.3184C197.539 31.9131 197.625 31.5824 197.795 31.3264C197.987 31.0704 198.265 30.8784 198.627 30.7504C198.99 30.6224 199.438 30.5584 199.971 30.5584H204.291V27.6784H199.715C198.713 27.6784 197.774 27.8278 196.899 28.1264C196.046 28.4251 195.363 28.9051 194.851 29.5664C194.339 30.2064 194.083 31.0704 194.083 32.1584C194.083 33.2464 194.339 34.1318 194.851 34.8144C195.363 35.4758 196.046 35.9664 196.899 36.2864C197.774 36.5851 198.713 36.7344 199.715 36.7344H204.291V34.1104Z" fill="white"/>
</svg>
