<svg width="242" height="65" viewBox="0 0 242 65" fill="none" xmlns="http://www.w3.org/2000/svg">
<path d="M241.431 34.8297C241.431 16.0749 226.227 0.871094 207.472 0.871094L31.6315 0.871094C14.1927 0.871094 0.0556641 15.0081 0.0556641 32.447C0.0556641 49.8858 14.1927 64.0228 31.6315 64.0228L241.431 64.0228V34.8297Z" fill="#0075FF"/>
<path d="M44.3294 35.0668C46.2067 35.1094 47.636 34.7894 48.6174 34.1068C49.5987 33.4028 50.0894 32.5174 50.0894 31.4508C50.0894 30.7041 49.8547 30.0214 49.3854 29.4028C48.916 28.7841 48.2654 28.2934 47.4334 27.9308C46.6014 27.5681 45.6627 27.3868 44.6174 27.3868C43.508 27.3868 42.516 27.6001 41.6414 28.0268C40.788 28.4534 40.116 29.0294 39.6254 29.7548C39.156 30.4801 38.9214 31.3014 38.9214 32.2188H42.2174C42.2174 31.8774 42.3027 31.5574 42.4734 31.2588C42.6654 30.9388 42.9427 30.6828 43.3054 30.4908C43.668 30.2774 44.116 30.1708 44.6494 30.1708C45.2894 30.1708 45.8014 30.3201 46.1854 30.6188C46.5694 30.9174 46.7614 31.3121 46.7614 31.8028C46.7614 32.2934 46.5694 32.7094 46.1854 33.0508C45.8014 33.3708 45.1827 33.5308 44.3294 33.5308V35.0668ZM44.5534 42.7468C45.7054 42.7468 46.7507 42.5654 47.6894 42.2028C48.628 41.8188 49.364 41.2854 49.8974 40.6028C50.452 39.8988 50.7294 39.0668 50.7294 38.1068C50.7294 36.7414 50.1534 35.7281 49.0014 35.0668C47.8707 34.3841 46.3134 34.0641 44.3294 34.1068V35.8028C44.9907 35.8028 45.5454 35.8881 45.9934 36.0588C46.4627 36.2294 46.8147 36.4748 47.0494 36.7948C47.284 37.0934 47.4014 37.4774 47.4014 37.9468C47.4014 38.3521 47.284 38.7148 47.0494 39.0348C46.836 39.3548 46.516 39.6001 46.0894 39.7708C45.6627 39.9414 45.1507 40.0268 44.5534 40.0268C43.636 40.0268 42.9427 39.7921 42.4734 39.3228C42.0254 38.8534 41.7267 38.2881 41.5774 37.6268H38.1854C38.356 39.1414 38.9854 40.3788 40.0734 41.3388C41.1827 42.2774 42.676 42.7468 44.5534 42.7468ZM58.1556 38.0748C58.1556 37.5628 58.2836 37.1254 58.5396 36.7628C58.7956 36.3788 59.169 36.0908 59.6596 35.8988C60.1503 35.6854 60.7583 35.5788 61.4836 35.5788C62.3796 35.5788 63.169 35.6961 63.8516 35.9308C64.5343 36.1441 65.2063 36.4961 65.8676 36.9868V35.1628C65.697 34.9494 65.3876 34.7041 64.9396 34.4268C64.4916 34.1494 63.9263 33.9041 63.2436 33.6908C62.5823 33.4774 61.825 33.3708 60.9716 33.3708C59.6916 33.3708 58.5716 33.5628 57.6116 33.9468C56.673 34.3308 55.9476 34.8854 55.4356 35.6108C54.9236 36.3361 54.6676 37.2001 54.6676 38.2028C54.6676 39.2054 54.8916 40.0481 55.3396 40.7308C55.809 41.3921 56.4276 41.8934 57.1956 42.2348C57.985 42.5761 58.8596 42.7468 59.8196 42.7468C60.8436 42.7468 61.7716 42.5761 62.6036 42.2348C63.4356 41.8721 64.097 41.3601 64.5876 40.6988C65.0783 40.0161 65.3236 39.2054 65.3236 38.2668L64.8116 36.5708C64.8116 37.4454 64.641 38.1388 64.2996 38.6508C63.9583 39.1628 63.489 39.5361 62.8916 39.7708C62.2943 40.0054 61.6223 40.1228 60.8756 40.1228C60.385 40.1228 59.9263 40.0481 59.4996 39.8988C59.0943 39.7281 58.7636 39.4934 58.5076 39.1948C58.273 38.8961 58.1556 38.5228 58.1556 38.0748ZM57.4196 31.5788C57.6543 31.4294 57.985 31.2481 58.4116 31.0348C58.8596 30.8001 59.3716 30.5974 59.9476 30.4268C60.545 30.2561 61.1956 30.1708 61.8996 30.1708C62.7103 30.1708 63.393 30.3628 63.9476 30.7468C64.5236 31.1094 64.8116 31.6321 64.8116 32.3148V42.4268H68.2036V31.9308C68.2036 30.9494 67.937 30.1174 67.4036 29.4348C66.8916 28.7521 66.177 28.2401 65.2596 27.8988C64.3423 27.5361 63.2756 27.3548 62.0596 27.3548C60.737 27.3548 59.5636 27.5468 58.5396 27.9308C57.5156 28.3148 56.673 28.7094 56.0116 29.1148L57.4196 31.5788ZM86.8849 27.7068H73.8609V42.4268H77.2529V30.8108H83.4929V42.4268H86.8849V27.7068ZM106.242 30.9068L106.402 26.5868L93.1864 39.2268L93.0264 43.5468L106.242 30.9068ZM96.4184 27.7068H93.0264V43.5468L96.4184 39.6108V27.7068ZM106.402 26.5868L103.01 30.4908V42.4268H106.402V26.5868ZM114.865 35.0668C114.865 34.1494 115.068 33.3388 115.473 32.6348C115.878 31.9308 116.422 31.3761 117.105 30.9708C117.809 30.5654 118.588 30.3628 119.441 30.3628C120.124 30.3628 120.785 30.4694 121.425 30.6828C122.065 30.8961 122.63 31.1948 123.121 31.5788C123.633 31.9414 124.006 32.3681 124.241 32.8588V29.0188C123.729 28.5281 123.036 28.1334 122.161 27.8348C121.286 27.5361 120.326 27.3868 119.281 27.3868C117.788 27.3868 116.433 27.7174 115.217 28.3788C114.022 29.0188 113.073 29.9148 112.369 31.0668C111.665 32.2188 111.313 33.5521 111.313 35.0668C111.313 36.5601 111.665 37.8934 112.369 39.0668C113.073 40.2188 114.022 41.1254 115.217 41.7868C116.433 42.4268 117.788 42.7468 119.281 42.7468C120.326 42.7468 121.286 42.5974 122.161 42.2988C123.036 42.0001 123.729 41.5948 124.241 41.0828V37.2748C124.006 37.7441 123.644 38.1708 123.153 38.5548C122.662 38.9174 122.097 39.2161 121.457 39.4508C120.838 39.6641 120.166 39.7708 119.441 39.7708C118.588 39.7708 117.809 39.5681 117.105 39.1628C116.422 38.7574 115.878 38.2028 115.473 37.4988C115.068 36.7948 114.865 35.9841 114.865 35.0668ZM131.837 38.0748C131.837 37.5628 131.965 37.1254 132.221 36.7628C132.477 36.3788 132.85 36.0908 133.341 35.8988C133.832 35.6854 134.44 35.5788 135.165 35.5788C136.061 35.5788 136.85 35.6961 137.533 35.9308C138.216 36.1441 138.888 36.4961 139.549 36.9868V35.1628C139.378 34.9494 139.069 34.7041 138.621 34.4268C138.173 34.1494 137.608 33.9041 136.925 33.6908C136.264 33.4774 135.506 33.3708 134.653 33.3708C133.373 33.3708 132.253 33.5628 131.293 33.9468C130.354 34.3308 129.629 34.8854 129.117 35.6108C128.605 36.3361 128.349 37.2001 128.349 38.2028C128.349 39.2054 128.573 40.0481 129.021 40.7308C129.49 41.3921 130.109 41.8934 130.877 42.2348C131.666 42.5761 132.541 42.7468 133.501 42.7468C134.525 42.7468 135.453 42.5761 136.285 42.2348C137.117 41.8721 137.778 41.3601 138.269 40.6988C138.76 40.0161 139.005 39.2054 139.005 38.2668L138.493 36.5708C138.493 37.4454 138.322 38.1388 137.981 38.6508C137.64 39.1628 137.17 39.5361 136.573 39.7708C135.976 40.0054 135.304 40.1228 134.557 40.1228C134.066 40.1228 133.608 40.0481 133.181 39.8988C132.776 39.7281 132.445 39.4934 132.189 39.1948C131.954 38.8961 131.837 38.5228 131.837 38.0748ZM131.101 31.5788C131.336 31.4294 131.666 31.2481 132.093 31.0348C132.541 30.8001 133.053 30.5974 133.629 30.4268C134.226 30.2561 134.877 30.1708 135.581 30.1708C136.392 30.1708 137.074 30.3628 137.629 30.7468C138.205 31.1094 138.493 31.6321 138.493 32.3148V42.4268H141.885V31.9308C141.885 30.9494 141.618 30.1174 141.085 29.4348C140.573 28.7521 139.858 28.2401 138.941 27.8988C138.024 27.5361 136.957 27.3548 135.741 27.3548C134.418 27.3548 133.245 27.5468 132.221 27.9308C131.197 28.3148 130.354 28.7094 129.693 29.1148L131.101 31.5788ZM145.494 27.7068V30.7468H154.806V27.7068H145.494ZM148.47 28.3468V42.4268H151.862V28.3468H148.47ZM158.831 27.7068V42.4268H162.319V27.7068H158.831ZM161.263 35.6428H165.487C166.276 35.6428 166.863 35.8134 167.247 36.1548C167.652 36.4961 167.855 36.9868 167.855 37.6268C167.855 38.0321 167.759 38.3841 167.567 38.6828C167.396 38.9814 167.13 39.2054 166.767 39.3548C166.426 39.5041 165.999 39.5788 165.487 39.5788H161.263V42.4268H165.839C166.863 42.4268 167.78 42.2454 168.591 41.8828C169.402 41.5201 170.042 40.9761 170.511 40.2508C170.98 39.5254 171.215 38.6401 171.215 37.5948C171.215 36.0161 170.692 34.8641 169.647 34.1388C168.623 33.3921 167.354 33.0188 165.839 33.0188H161.263V35.6428ZM178.921 35.0668C178.921 34.1494 179.124 33.3388 179.529 32.6348C179.934 31.9308 180.478 31.3761 181.161 30.9708C181.865 30.5654 182.644 30.3628 183.497 30.3628C184.18 30.3628 184.841 30.4694 185.481 30.6828C186.121 30.8961 186.686 31.1948 187.177 31.5788C187.689 31.9414 188.062 32.3681 188.297 32.8588V29.0188C187.785 28.5281 187.092 28.1334 186.217 27.8348C185.342 27.5361 184.382 27.3868 183.337 27.3868C181.844 27.3868 180.489 27.7174 179.273 28.3788C178.078 29.0188 177.129 29.9148 176.425 31.0668C175.721 32.2188 175.369 33.5521 175.369 35.0668C175.369 36.5601 175.721 37.8934 176.425 39.0668C177.129 40.2188 178.078 41.1254 179.273 41.7868C180.489 42.4268 181.844 42.7468 183.337 42.7468C184.382 42.7468 185.342 42.5974 186.217 42.2988C187.092 42.0001 187.785 41.5948 188.297 41.0828V37.2748C188.062 37.7441 187.7 38.1708 187.209 38.5548C186.718 38.9174 186.153 39.2161 185.513 39.4508C184.894 39.6641 184.222 39.7708 183.497 39.7708C182.644 39.7708 181.865 39.5681 181.161 39.1628C180.478 38.7574 179.934 38.2028 179.529 37.4988C179.124 36.7948 178.921 35.9841 178.921 35.0668ZM196.757 42.4268L201.621 35.1308H198.101L193.045 42.4268H196.757ZM206.293 42.4268V27.7068H202.805V42.4268H206.293ZM204.117 34.1388H199.797C199.264 34.1388 198.816 34.0748 198.453 33.9468C198.09 33.8188 197.813 33.6268 197.621 33.3708C197.45 33.1148 197.365 32.7734 197.365 32.3468C197.365 31.9414 197.45 31.6108 197.621 31.3548C197.813 31.0988 198.09 30.9068 198.453 30.7788C198.816 30.6508 199.264 30.5868 199.797 30.5868H204.117V27.7068H199.541C198.538 27.7068 197.6 27.8561 196.725 28.1548C195.872 28.4534 195.189 28.9334 194.677 29.5948C194.165 30.2348 193.909 31.0988 193.909 32.1868C193.909 33.2748 194.165 34.1601 194.677 34.8428C195.189 35.5041 195.872 35.9948 196.725 36.3148C197.6 36.6134 198.538 36.7628 199.541 36.7628H204.117V34.1388Z" fill="white"/>
</svg>
