<svg width="268" height="65" viewBox="0 0 268 65" fill="none" xmlns="http://www.w3.org/2000/svg">
<path d="M267.134 34.9039C267.134 16.1491 251.93 0.945312 233.175 0.945312L31.6315 0.945312C14.1927 0.945312 0.0556641 15.0823 0.0556641 32.5212C0.0556641 49.96 14.1927 64.097 31.6315 64.097L267.134 64.097L267.134 34.9039Z" fill="#0075FF"/>
<path d="M51.8176 30.981L51.9776 26.661L38.7616 39.301L38.6016 43.621L51.8176 30.981ZM41.9936 27.781H38.6016V43.621L41.9936 39.685V27.781ZM51.9776 26.661L48.5856 30.565V42.501H51.9776V26.661ZM59.6401 36.165H70.9041V33.285H59.6401V36.165ZM69.0481 27.781V42.501H72.4401V27.781H69.0481ZM58.1361 27.781V42.501H61.5281V27.781H58.1361ZM76.4069 27.781V30.821H85.7189V27.781H76.4069ZM79.3829 28.421V42.501H82.7749V28.421H79.3829ZM90.1711 35.941H103.099C103.12 35.749 103.131 35.5783 103.131 35.429C103.131 35.2583 103.131 35.109 103.131 34.981C103.131 33.4236 102.832 32.0903 102.235 30.981C101.659 29.8503 100.816 28.9863 99.7071 28.389C98.6191 27.7703 97.3071 27.461 95.7711 27.461C94.3845 27.461 93.1578 27.717 92.0911 28.229C91.0245 28.741 90.1605 29.4556 89.4991 30.373C88.8591 31.2903 88.4325 32.357 88.2191 33.573C88.1765 33.829 88.1445 34.085 88.1231 34.341C88.1018 34.597 88.0911 34.8636 88.0911 35.141C88.0911 36.613 88.4005 37.9356 89.0191 39.109C89.6378 40.261 90.5125 41.1676 91.6431 41.829C92.7951 42.4903 94.1178 42.821 95.6111 42.821C96.9551 42.821 98.0751 42.661 98.9711 42.341C99.8885 41.9996 100.667 41.5303 101.307 40.933C101.947 40.3356 102.512 39.6316 103.003 38.821L99.9951 37.637C99.7178 38.1063 99.3765 38.5223 98.9711 38.885C98.5658 39.2263 98.0965 39.493 97.5631 39.685C97.0511 39.877 96.4538 39.973 95.7711 39.973C94.9605 39.973 94.2351 39.8023 93.5951 39.461C92.9765 39.0983 92.4858 38.5543 92.1231 37.829C91.7818 37.1036 91.6111 36.2076 91.6111 35.141L91.6751 34.245C91.6751 33.3916 91.8458 32.6556 92.1871 32.037C92.5498 31.397 93.0405 30.917 93.6591 30.597C94.2778 30.2556 94.9711 30.085 95.7391 30.085C96.4858 30.085 97.1151 30.2343 97.6271 30.533C98.1391 30.8103 98.5338 31.2156 98.8111 31.749C99.1098 32.261 99.3018 32.8583 99.3871 33.541H90.1711V35.941ZM111.421 49.541V27.781H107.933V49.541H111.421ZM123.613 35.141C123.613 33.477 123.282 32.0796 122.621 30.949C121.96 29.797 121.085 28.9116 119.997 28.293C118.909 27.6743 117.725 27.365 116.445 27.365C115.208 27.365 114.12 27.685 113.181 28.325C112.264 28.965 111.549 29.861 111.037 31.013C110.525 32.165 110.269 33.541 110.269 35.141C110.269 36.7196 110.525 38.0956 111.037 39.269C111.549 40.421 112.264 41.317 113.181 41.957C114.12 42.5756 115.208 42.885 116.445 42.885C117.725 42.885 118.909 42.5863 119.997 41.989C121.085 41.3703 121.96 40.485 122.621 39.333C123.282 38.1596 123.613 36.7623 123.613 35.141ZM120.029 35.141C120.029 36.1223 119.826 36.9543 119.421 37.637C119.016 38.3196 118.482 38.8423 117.821 39.205C117.16 39.5676 116.424 39.749 115.613 39.749C114.93 39.749 114.269 39.5783 113.629 39.237C112.989 38.8743 112.456 38.3516 112.029 37.669C111.624 36.9863 111.421 36.1436 111.421 35.141C111.421 34.1383 111.624 33.2956 112.029 32.613C112.456 31.9303 112.989 31.4183 113.629 31.077C114.269 30.7143 114.93 30.533 115.613 30.533C116.424 30.533 117.16 30.7143 117.821 31.077C118.482 31.4183 119.016 31.941 119.421 32.645C119.826 33.3276 120.029 34.1596 120.029 35.141ZM129.465 35.941H142.393C142.414 35.749 142.425 35.5783 142.425 35.429C142.425 35.2583 142.425 35.109 142.425 34.981C142.425 33.4236 142.126 32.0903 141.529 30.981C140.953 29.8503 140.11 28.9863 139.001 28.389C137.913 27.7703 136.601 27.461 135.065 27.461C133.678 27.461 132.452 27.717 131.385 28.229C130.318 28.741 129.454 29.4556 128.793 30.373C128.153 31.2903 127.726 32.357 127.513 33.573C127.47 33.829 127.438 34.085 127.417 34.341C127.396 34.597 127.385 34.8636 127.385 35.141C127.385 36.613 127.694 37.9356 128.313 39.109C128.932 40.261 129.806 41.1676 130.937 41.829C132.089 42.4903 133.412 42.821 134.905 42.821C136.249 42.821 137.369 42.661 138.265 42.341C139.182 41.9996 139.961 41.5303 140.601 40.933C141.241 40.3356 141.806 39.6316 142.297 38.821L139.289 37.637C139.012 38.1063 138.67 38.5223 138.265 38.885C137.86 39.2263 137.39 39.493 136.857 39.685C136.345 39.877 135.748 39.973 135.065 39.973C134.254 39.973 133.529 39.8023 132.889 39.461C132.27 39.0983 131.78 38.5543 131.417 37.829C131.076 37.1036 130.905 36.2076 130.905 35.141L130.969 34.245C130.969 33.3916 131.14 32.6556 131.481 32.037C131.844 31.397 132.334 30.917 132.953 30.597C133.572 30.2556 134.265 30.085 135.033 30.085C135.78 30.085 136.409 30.2343 136.921 30.533C137.433 30.8103 137.828 31.2156 138.105 31.749C138.404 32.261 138.596 32.8583 138.681 33.541H129.465V35.941ZM149.659 35.141C149.659 34.2236 149.862 33.413 150.267 32.709C150.672 32.005 151.216 31.4503 151.899 31.045C152.603 30.6396 153.382 30.437 154.235 30.437C154.918 30.437 155.579 30.5436 156.219 30.757C156.859 30.9703 157.424 31.269 157.915 31.653C158.427 32.0156 158.8 32.4423 159.035 32.933V29.093C158.523 28.6023 157.83 28.2076 156.955 27.909C156.08 27.6103 155.12 27.461 154.075 27.461C152.582 27.461 151.227 27.7916 150.011 28.453C148.816 29.093 147.867 29.989 147.163 31.141C146.459 32.293 146.107 33.6263 146.107 35.141C146.107 36.6343 146.459 37.9676 147.163 39.141C147.867 40.293 148.816 41.1996 150.011 41.861C151.227 42.501 152.582 42.821 154.075 42.821C155.12 42.821 156.08 42.6716 156.955 42.373C157.83 42.0743 158.523 41.669 159.035 41.157V37.349C158.8 37.8183 158.438 38.245 157.947 38.629C157.456 38.9916 156.891 39.2903 156.251 39.525C155.632 39.7383 154.96 39.845 154.235 39.845C153.382 39.845 152.603 39.6423 151.899 39.237C151.216 38.8316 150.672 38.277 150.267 37.573C149.862 36.869 149.659 36.0583 149.659 35.141ZM165.959 36.165H177.223V33.285H165.959V36.165ZM175.367 27.781V42.501H178.759V27.781H175.367ZM164.455 27.781V42.501H167.847V27.781H164.455ZM183.654 35.141C183.654 36.6343 183.995 37.9676 184.678 39.141C185.382 40.293 186.331 41.1996 187.526 41.861C188.742 42.501 190.096 42.821 191.59 42.821C193.104 42.821 194.459 42.501 195.654 41.861C196.848 41.1996 197.787 40.293 198.47 39.141C199.174 37.9676 199.526 36.6343 199.526 35.141C199.526 33.6263 199.174 32.293 198.47 31.141C197.787 29.989 196.848 29.093 195.654 28.453C194.459 27.7916 193.104 27.461 191.59 27.461C190.096 27.461 188.742 27.7916 187.526 28.453C186.331 29.093 185.382 29.989 184.678 31.141C183.995 32.293 183.654 33.6263 183.654 35.141ZM187.206 35.141C187.206 34.2236 187.398 33.413 187.782 32.709C188.166 32.005 188.688 31.461 189.35 31.077C190.011 30.693 190.758 30.501 191.59 30.501C192.422 30.501 193.168 30.693 193.83 31.077C194.491 31.461 195.014 32.005 195.398 32.709C195.782 33.413 195.974 34.2236 195.974 35.141C195.974 36.0583 195.782 36.869 195.398 37.573C195.014 38.2556 194.491 38.7996 193.83 39.205C193.168 39.589 192.422 39.781 191.59 39.781C190.758 39.781 190.011 39.589 189.35 39.205C188.688 38.7996 188.166 38.2556 187.782 37.573C187.398 36.869 187.206 36.0583 187.206 35.141ZM203.322 40.869C203.322 41.4663 203.536 41.989 203.962 42.437C204.41 42.885 204.954 43.109 205.594 43.109C206.234 43.109 206.768 42.885 207.194 42.437C207.621 41.989 207.834 41.4663 207.834 40.869C207.834 40.2503 207.621 39.7276 207.194 39.301C206.768 38.853 206.234 38.629 205.594 38.629C204.954 38.629 204.41 38.853 203.962 39.301C203.536 39.7276 203.322 40.2503 203.322 40.869ZM214.797 40.869C214.797 41.4663 215.011 41.989 215.437 42.437C215.885 42.885 216.429 43.109 217.069 43.109C217.709 43.109 218.243 42.885 218.669 42.437C219.096 41.989 219.309 41.4663 219.309 40.869C219.309 40.2503 219.096 39.7276 218.669 39.301C218.243 38.853 217.709 38.629 217.069 38.629C216.429 38.629 215.885 38.853 215.437 39.301C215.011 39.7276 214.797 40.2503 214.797 40.869ZM226.272 40.869C226.272 41.4663 226.486 41.989 226.912 42.437C227.36 42.885 227.904 43.109 228.544 43.109C229.184 43.109 229.718 42.885 230.144 42.437C230.571 41.989 230.784 41.4663 230.784 40.869C230.784 40.2503 230.571 39.7276 230.144 39.301C229.718 38.853 229.184 38.629 228.544 38.629C227.904 38.629 227.36 38.853 226.912 39.301C226.486 39.7276 226.272 40.2503 226.272 40.869Z" fill="white"/>
</svg>
