<svg width="269" height="64" viewBox="0 0 269 64" fill="none" xmlns="http://www.w3.org/2000/svg">
<path d="M268.015 34.1812C268.015 15.4264 252.811 0.222656 234.056 0.222656L32.5123 0.222656C15.0734 0.222656 0.936401 14.3597 0.936401 31.7985C0.936401 49.2374 15.0734 63.3744 32.5123 63.3744L268.015 63.3744L268.015 34.1812Z" fill="#4E9FFF"/>
<path d="M52.6985 30.2593L52.8585 25.9393L39.6425 38.5793L39.4825 42.8993L52.6985 30.2593ZM42.8745 27.0593H39.4825V42.8993L42.8745 38.9633V27.0593ZM52.8585 25.9393L49.4665 29.8433V41.7793H52.8585V25.9393ZM60.521 35.4433H71.785V32.5633H60.521V35.4433ZM69.929 27.0593V41.7793H73.321V27.0593H69.929ZM59.017 27.0593V41.7793H62.409V27.0593H59.017ZM77.2877 27.0593V30.0993H86.5997V27.0593H77.2877ZM80.2637 27.6993V41.7793H83.6557V27.6993H80.2637ZM91.052 35.2193H103.98C104.001 35.0273 104.012 34.8566 104.012 34.7073C104.012 34.5366 104.012 34.3873 104.012 34.2593C104.012 32.702 103.713 31.3686 103.116 30.2593C102.54 29.1286 101.697 28.2646 100.588 27.6673C99.5 27.0486 98.188 26.7393 96.652 26.7393C95.2653 26.7393 94.0387 26.9953 92.972 27.5073C91.9053 28.0193 91.0413 28.734 90.38 29.6513C89.74 30.5686 89.3133 31.6353 89.1 32.8513C89.0573 33.1073 89.0253 33.3633 89.004 33.6193C88.9827 33.8753 88.972 34.142 88.972 34.4193C88.972 35.8913 89.2813 37.214 89.9 38.3873C90.5187 39.5393 91.3933 40.446 92.524 41.1073C93.676 41.7686 94.9987 42.0993 96.492 42.0993C97.836 42.0993 98.956 41.9393 99.852 41.6193C100.769 41.278 101.548 40.8086 102.188 40.2113C102.828 39.614 103.393 38.91 103.884 38.0993L100.876 36.9153C100.599 37.3846 100.257 37.8006 99.852 38.1633C99.4467 38.5046 98.9773 38.7713 98.444 38.9633C97.932 39.1553 97.3347 39.2513 96.652 39.2513C95.8413 39.2513 95.116 39.0806 94.476 38.7393C93.8573 38.3766 93.3667 37.8326 93.004 37.1073C92.6627 36.382 92.492 35.486 92.492 34.4193L92.556 33.5233C92.556 32.67 92.7267 31.934 93.068 31.3153C93.4307 30.6753 93.9213 30.1953 94.54 29.8753C95.1587 29.534 95.852 29.3633 96.62 29.3633C97.3667 29.3633 97.996 29.5126 98.508 29.8113C99.02 30.0886 99.4147 30.494 99.692 31.0273C99.9907 31.5393 100.183 32.1366 100.268 32.8193H91.052V35.2193ZM112.302 48.8193V27.0593H108.814V48.8193H112.302ZM124.494 34.4193C124.494 32.7553 124.163 31.358 123.502 30.2273C122.841 29.0753 121.966 28.19 120.878 27.5713C119.79 26.9526 118.606 26.6433 117.326 26.6433C116.089 26.6433 115.001 26.9633 114.062 27.6033C113.145 28.2433 112.43 29.1393 111.918 30.2913C111.406 31.4433 111.15 32.8193 111.15 34.4193C111.15 35.998 111.406 37.374 111.918 38.5473C112.43 39.6993 113.145 40.5953 114.062 41.2353C115.001 41.854 116.089 42.1633 117.326 42.1633C118.606 42.1633 119.79 41.8646 120.878 41.2673C121.966 40.6486 122.841 39.7633 123.502 38.6113C124.163 37.438 124.494 36.0406 124.494 34.4193ZM120.91 34.4193C120.91 35.4006 120.707 36.2326 120.302 36.9153C119.897 37.598 119.363 38.1206 118.702 38.4833C118.041 38.846 117.305 39.0273 116.494 39.0273C115.811 39.0273 115.15 38.8566 114.51 38.5153C113.87 38.1526 113.337 37.63 112.91 36.9473C112.505 36.2646 112.302 35.422 112.302 34.4193C112.302 33.4166 112.505 32.574 112.91 31.8913C113.337 31.2086 113.87 30.6966 114.51 30.3553C115.15 29.9926 115.811 29.8113 116.494 29.8113C117.305 29.8113 118.041 29.9926 118.702 30.3553C119.363 30.6966 119.897 31.2193 120.302 31.9233C120.707 32.606 120.91 33.438 120.91 34.4193ZM130.346 35.2193H143.274C143.295 35.0273 143.306 34.8566 143.306 34.7073C143.306 34.5366 143.306 34.3873 143.306 34.2593C143.306 32.702 143.007 31.3686 142.41 30.2593C141.834 29.1286 140.991 28.2646 139.882 27.6673C138.794 27.0486 137.482 26.7393 135.946 26.7393C134.559 26.7393 133.332 26.9953 132.266 27.5073C131.199 28.0193 130.335 28.734 129.674 29.6513C129.034 30.5686 128.607 31.6353 128.394 32.8513C128.351 33.1073 128.319 33.3633 128.298 33.6193C128.276 33.8753 128.266 34.142 128.266 34.4193C128.266 35.8913 128.575 37.214 129.194 38.3873C129.812 39.5393 130.687 40.446 131.818 41.1073C132.97 41.7686 134.292 42.0993 135.786 42.0993C137.13 42.0993 138.25 41.9393 139.146 41.6193C140.063 41.278 140.842 40.8086 141.482 40.2113C142.122 39.614 142.687 38.91 143.178 38.0993L140.17 36.9153C139.892 37.3846 139.551 37.8006 139.146 38.1633C138.74 38.5046 138.271 38.7713 137.738 38.9633C137.226 39.1553 136.628 39.2513 135.946 39.2513C135.135 39.2513 134.41 39.0806 133.77 38.7393C133.151 38.3766 132.66 37.8326 132.298 37.1073C131.956 36.382 131.786 35.486 131.786 34.4193L131.85 33.5233C131.85 32.67 132.02 31.934 132.362 31.3153C132.724 30.6753 133.215 30.1953 133.834 29.8753C134.452 29.534 135.146 29.3633 135.914 29.3633C136.66 29.3633 137.29 29.5126 137.802 29.8113C138.314 30.0886 138.708 30.494 138.986 31.0273C139.284 31.5393 139.476 32.1366 139.562 32.8193H130.346V35.2193ZM150.54 34.4193C150.54 33.502 150.742 32.6913 151.148 31.9873C151.553 31.2833 152.097 30.7286 152.78 30.3233C153.484 29.918 154.262 29.7153 155.116 29.7153C155.798 29.7153 156.46 29.822 157.1 30.0353C157.74 30.2486 158.305 30.5473 158.796 30.9313C159.308 31.294 159.681 31.7206 159.916 32.2113V28.3713C159.404 27.8806 158.71 27.486 157.836 27.1873C156.961 26.8886 156.001 26.7393 154.956 26.7393C153.462 26.7393 152.108 27.07 150.892 27.7313C149.697 28.3713 148.748 29.2673 148.044 30.4193C147.34 31.5713 146.988 32.9046 146.988 34.4193C146.988 35.9126 147.34 37.246 148.044 38.4193C148.748 39.5713 149.697 40.478 150.892 41.1393C152.108 41.7793 153.462 42.0993 154.956 42.0993C156.001 42.0993 156.961 41.95 157.836 41.6513C158.71 41.3526 159.404 40.9473 159.916 40.4353V36.6273C159.681 37.0966 159.318 37.5233 158.828 37.9073C158.337 38.27 157.772 38.5686 157.132 38.8033C156.513 39.0166 155.841 39.1233 155.116 39.1233C154.262 39.1233 153.484 38.9206 152.78 38.5153C152.097 38.11 151.553 37.5553 151.148 36.8513C150.742 36.1473 150.54 35.3366 150.54 34.4193ZM166.84 35.4433H178.104V32.5633H166.84V35.4433ZM176.248 27.0593V41.7793H179.64V27.0593H176.248ZM165.336 27.0593V41.7793H168.728V27.0593H165.336ZM184.534 34.4193C184.534 35.9126 184.876 37.246 185.558 38.4193C186.262 39.5713 187.212 40.478 188.406 41.1393C189.622 41.7793 190.977 42.0993 192.47 42.0993C193.985 42.0993 195.34 41.7793 196.534 41.1393C197.729 40.478 198.668 39.5713 199.35 38.4193C200.054 37.246 200.406 35.9126 200.406 34.4193C200.406 32.9046 200.054 31.5713 199.35 30.4193C198.668 29.2673 197.729 28.3713 196.534 27.7313C195.34 27.07 193.985 26.7393 192.47 26.7393C190.977 26.7393 189.622 27.07 188.406 27.7313C187.212 28.3713 186.262 29.2673 185.558 30.4193C184.876 31.5713 184.534 32.9046 184.534 34.4193ZM188.086 34.4193C188.086 33.502 188.278 32.6913 188.662 31.9873C189.046 31.2833 189.569 30.7393 190.23 30.3553C190.892 29.9713 191.638 29.7793 192.47 29.7793C193.302 29.7793 194.049 29.9713 194.71 30.3553C195.372 30.7393 195.894 31.2833 196.278 31.9873C196.662 32.6913 196.854 33.502 196.854 34.4193C196.854 35.3366 196.662 36.1473 196.278 36.8513C195.894 37.534 195.372 38.078 194.71 38.4833C194.049 38.8673 193.302 39.0593 192.47 39.0593C191.638 39.0593 190.892 38.8673 190.23 38.4833C189.569 38.078 189.046 37.534 188.662 36.8513C188.278 36.1473 188.086 35.3366 188.086 34.4193ZM204.203 40.1473C204.203 40.7446 204.417 41.2673 204.843 41.7153C205.291 42.1633 205.835 42.3873 206.475 42.3873C207.115 42.3873 207.649 42.1633 208.075 41.7153C208.502 41.2673 208.715 40.7446 208.715 40.1473C208.715 39.5286 208.502 39.006 208.075 38.5793C207.649 38.1313 207.115 37.9073 206.475 37.9073C205.835 37.9073 205.291 38.1313 204.843 38.5793C204.417 39.006 204.203 39.5286 204.203 40.1473ZM215.678 40.1473C215.678 40.7446 215.892 41.2673 216.318 41.7153C216.766 42.1633 217.31 42.3873 217.95 42.3873C218.59 42.3873 219.124 42.1633 219.55 41.7153C219.977 41.2673 220.19 40.7446 220.19 40.1473C220.19 39.5286 219.977 39.006 219.55 38.5793C219.124 38.1313 218.59 37.9073 217.95 37.9073C217.31 37.9073 216.766 38.1313 216.318 38.5793C215.892 39.006 215.678 39.5286 215.678 40.1473ZM227.153 40.1473C227.153 40.7446 227.367 41.2673 227.793 41.7153C228.241 42.1633 228.785 42.3873 229.425 42.3873C230.065 42.3873 230.599 42.1633 231.025 41.7153C231.452 41.2673 231.665 40.7446 231.665 40.1473C231.665 39.5286 231.452 39.006 231.025 38.5793C230.599 38.1313 230.065 37.9073 229.425 37.9073C228.785 37.9073 228.241 38.1313 227.793 38.5793C227.367 39.006 227.153 39.5286 227.153 40.1473Z" fill="white"/>
</svg>
