<svg width="66" height="66" viewBox="0 0 66 66" fill="none" xmlns="http://www.w3.org/2000/svg">
<circle cx="33.2139" cy="32.6672" r="32.4397" fill="#EA4948"/>
<path d="M29.6654 38.128L38.8736 32.6674L29.6654 27.2067V38.128ZM50.1753 23.8757C50.406 24.7312 50.5656 25.8779 50.6721 27.3341C50.7963 28.7903 50.8495 30.0462 50.8495 31.1384L50.956 32.6674C50.956 36.6536 50.6721 39.5842 50.1753 41.459C49.7318 43.0972 48.7027 44.153 47.1059 44.608C46.272 44.8447 44.7462 45.0085 42.4043 45.1177C40.0978 45.2451 37.9865 45.2997 36.0348 45.2997L33.2138 45.4089C25.7799 45.4089 21.1492 45.1177 19.3217 44.608C17.7249 44.153 16.6959 43.0972 16.2523 41.459C16.0217 40.6035 15.862 39.4568 15.7556 38.0006C15.6314 36.5444 15.5781 35.2885 15.5781 34.1963L15.4717 32.6674C15.4717 28.6811 15.7556 25.7505 16.2523 23.8757C16.6959 22.2375 17.7249 21.1817 19.3217 20.7267C20.1556 20.4901 21.6814 20.3262 24.0234 20.217C26.3299 20.0896 28.4412 20.035 30.3928 20.035L33.2138 19.9258C40.6478 19.9258 45.2785 20.217 47.1059 20.7267C48.7027 21.1817 49.7318 22.2375 50.1753 23.8757Z" fill="white"/>
</svg>
