<svg width="65" height="66" viewBox="0 0 65 66" fill="none" xmlns="http://www.w3.org/2000/svg">
<circle cx="32.5364" cy="32.9709" r="32.4397" fill="#FE7170"/>
<path d="M28.9877 38.4327L38.1958 32.972L28.9877 27.5114V38.4327ZM49.4976 24.1804C49.7282 25.0359 49.8879 26.1826 49.9944 27.6388C50.1186 29.095 50.1718 30.3509 50.1718 31.4431L50.2782 32.972C50.2782 36.9583 49.9944 39.8889 49.4976 41.7637C49.054 43.4019 48.025 44.4577 46.4282 44.9127C45.5943 45.1493 44.0685 45.3132 41.7265 45.4224C39.42 45.5498 37.3087 45.6044 35.3571 45.6044L32.5361 45.7136C25.1021 45.7136 20.4714 45.4224 18.644 44.9127C17.0472 44.4577 16.0182 43.4019 15.5746 41.7637C15.344 40.9082 15.1843 39.7615 15.0778 38.3053C14.9536 36.8491 14.9004 35.5932 14.9004 34.501L14.7939 32.972C14.7939 28.9858 15.0778 26.0552 15.5746 24.1804C16.0182 22.5422 17.0472 21.4864 18.644 21.0314C19.4779 20.7947 21.0037 20.6309 23.3457 20.5217C25.6521 20.3943 27.7635 20.3397 29.7151 20.3397L32.5361 20.2305C39.97 20.2305 44.6007 20.5217 46.4282 21.0314C48.025 21.4864 49.054 22.5422 49.4976 24.1804Z" fill="white"/>
</svg>
