<svg width="66" height="66" viewBox="0 0 66 66" fill="none" xmlns="http://www.w3.org/2000/svg">
<circle cx="33.1306" cy="32.9709" r="32.4397" fill="#8CD6FF"/>
<path fill-rule="evenodd" clip-rule="evenodd" d="M43.8536 19.7282C44.2694 19.5486 44.7246 19.4867 45.1716 19.5488C45.6187 19.611 46.0414 19.7949 46.3956 20.0815C46.7499 20.3681 47.0228 20.7469 47.186 21.1784C47.3491 21.61 47.3965 22.0785 47.3233 22.5352L43.507 46.2844C43.1368 48.5752 40.6868 49.889 38.6389 48.7479C36.9259 47.7932 34.3817 46.3224 32.0932 44.7877C30.949 44.0194 27.4439 41.5594 27.8747 39.8089C28.2449 38.3122 34.1343 32.6878 37.4997 29.3439C38.8206 28.0301 38.2182 27.2723 36.6584 28.4807C32.7831 31.4811 26.5656 36.0438 24.5093 37.3282C22.6954 38.4606 21.7497 38.654 20.6189 38.4606C18.5559 38.1085 16.6427 37.5629 15.0811 36.8983C12.971 36.0006 13.0737 33.0244 15.0795 32.1578L43.8536 19.7282Z" fill="white"/>
</svg>
