<svg width="66" height="66" viewBox="0 0 66 66" fill="none" xmlns="http://www.w3.org/2000/svg">
<circle cx="32.8079" cy="32.6672" r="32.4397" fill="#57BDF5"/>
<path fill-rule="evenodd" clip-rule="evenodd" d="M43.5308 19.4235C43.9467 19.2439 44.4018 19.182 44.8489 19.2442C45.296 19.3063 45.7186 19.4902 46.0729 19.7768C46.4271 20.0634 46.7001 20.4422 46.8632 20.8738C47.0264 21.3053 47.0738 21.7738 47.0006 22.2305L43.1842 45.9797C42.814 48.2705 40.364 49.5843 38.3162 48.4432C36.6032 47.4885 34.0589 46.0177 31.7705 44.483C30.6262 43.7147 27.1212 41.2547 27.5519 39.5042C27.9221 38.0075 33.8116 32.3831 37.177 29.0392C38.4979 27.7254 37.8955 26.9676 36.3356 28.176C32.4604 31.1764 26.2428 35.7391 24.1866 37.0235C22.3726 38.1559 21.4269 38.3493 20.2962 38.1559C18.2332 37.8038 16.3199 37.2583 14.7584 36.5936C12.6483 35.6959 12.7509 32.7197 14.7567 31.8531L43.5308 19.4235Z" fill="white"/>
</svg>
