<svg width="66" height="66" viewBox="0 0 66 66" fill="none" xmlns="http://www.w3.org/2000/svg">
<circle cx="32.8333" cy="32.9709" r="32.4397" fill="#4E9FFF"/>
<path fill-rule="evenodd" clip-rule="evenodd" d="M50.9392 23.718C51.2366 22.7513 50.9392 22.0485 49.6234 22.0485H45.2484C44.1448 22.0485 43.6352 22.6639 43.3378 23.3221C43.3378 23.3221 41.0873 28.9445 37.9445 32.5896C36.9253 33.6438 36.4583 33.9952 35.9061 33.9952C35.6087 33.9952 35.226 33.6438 35.226 32.6779V23.6726C35.226 22.531 34.8869 22.0039 33.952 22.0039H27.0716C26.3916 22.0039 25.9672 22.531 25.9672 23.0581C25.9672 24.156 27.5386 24.42 27.7082 27.4943V34.1743C27.7082 35.6236 27.4576 35.8885 26.9012 35.8885C25.415 35.8885 21.8052 30.2224 19.6399 23.766C19.2188 22.4873 18.7911 22.0039 17.6867 22.0039H13.2699C11.9959 22.0039 11.7837 22.6184 11.7837 23.2775C11.7837 24.4637 13.2699 30.4366 18.7059 38.3423C22.3157 43.7418 27.4542 46.6438 32.0832 46.6438C34.8869 46.6438 35.226 45.9848 35.226 44.8868V40.802C35.226 39.4847 35.4808 39.2653 36.3731 39.2653C37.0096 39.2653 38.1566 39.6159 40.7472 42.2076C43.7196 45.282 44.2292 46.6875 45.8858 46.6875H50.26C51.534 46.6875 52.1288 46.0285 51.7888 44.7549C51.407 43.4812 49.9626 41.6368 48.0938 39.441C47.0746 38.212 45.5458 36.8501 45.0788 36.191C44.4422 35.3125 44.6118 34.9611 45.0788 34.1709C45.0362 34.1709 50.3878 26.3527 50.9392 23.7146" fill="white"/>
</svg>
