<svg width="65" height="66" viewBox="0 0 65 66" fill="none" xmlns="http://www.w3.org/2000/svg">
<circle cx="32.5109" cy="32.6672" r="32.4397" fill="#2781EC"/>
<path fill-rule="evenodd" clip-rule="evenodd" d="M50.6167 23.4134C50.9141 22.4466 50.6167 21.7438 49.3009 21.7438H44.9259C43.8223 21.7438 43.3127 22.3592 43.0153 23.0174C43.0153 23.0174 40.7647 28.6398 37.6219 32.2849C36.6027 33.3391 36.1358 33.6905 35.5835 33.6905C35.2861 33.6905 34.9035 33.3391 34.9035 32.3732V23.3679C34.9035 22.2263 34.5644 21.6992 33.6295 21.6992H26.7491C26.0691 21.6992 25.6447 22.2263 25.6447 22.7534C25.6447 23.8513 27.2161 24.1153 27.3857 27.1896V33.8696C27.3857 35.3189 27.1351 35.5838 26.5787 35.5838C25.0925 35.5838 21.4827 29.9177 19.3173 23.4614C18.8963 22.1826 18.4686 21.6992 17.3642 21.6992H12.9474C11.6734 21.6992 11.4612 22.3137 11.4612 22.9728C11.4612 24.159 12.9474 30.1319 18.3834 38.0376C21.9932 43.4371 27.1317 46.3392 31.7607 46.3392C34.5644 46.3392 34.9035 45.6801 34.9035 44.5822V40.4974C34.9035 39.18 35.1583 38.9606 36.0505 38.9606C36.6871 38.9606 37.8341 39.3112 40.4247 41.903C43.3971 44.9773 43.9067 46.3829 45.5633 46.3829H49.9375C51.2115 46.3829 51.8063 45.7238 51.4663 44.4502C51.0845 43.1766 49.6401 41.3321 47.7713 39.1363C46.7521 37.9073 45.2233 36.5454 44.7563 35.8863C44.1197 35.0078 44.2893 34.6564 44.7563 33.8662C44.7137 33.8662 50.0653 26.048 50.6167 23.4099" fill="white"/>
</svg>
