<svg width="201" height="75" viewBox="0 0 201 75" fill="none" xmlns="http://www.w3.org/2000/svg">
<path d="M98.6504 13.2362H109.062V9.07814H98.6504V13.2362ZM98.6504 22.4172H108.73V18.4587H98.6504V22.4172ZM95.5901 9.07814V32.3633H100.181V9.07814H95.5901ZM117.498 26.3757V17.0616H113.041V26.8414C113.041 28.6598 113.484 30.0902 114.371 31.1325C115.281 32.1748 116.644 32.6959 118.463 32.6959C119.549 32.6959 120.47 32.4742 121.224 32.0306C121.978 31.5649 122.599 30.8996 123.087 30.0348V32.3633H127.378V17.0616H123.087V26.3757C123.087 27.0188 122.954 27.5732 122.687 28.0389C122.443 28.5046 122.089 28.8705 121.623 29.1366C121.179 29.3806 120.647 29.5025 120.026 29.5025C119.139 29.5025 118.496 29.2364 118.097 28.7042C117.698 28.1498 117.498 27.3736 117.498 26.3757ZM130.325 17.0616V20.6874H139.772V17.0616H130.325ZM132.953 11.7393V32.3633H137.111V11.7393H132.953ZM147.188 26.3757V17.0616H142.731V26.8414C142.731 28.6598 143.174 30.0902 144.061 31.1325C144.97 32.1748 146.334 32.6959 148.153 32.6959C149.239 32.6959 150.16 32.4742 150.914 32.0306C151.668 31.5649 152.289 30.8996 152.776 30.0348V32.3633H157.068V17.0616H152.776V26.3757C152.776 27.0188 152.643 27.5732 152.377 28.0389C152.133 28.5046 151.779 28.8705 151.313 29.1366C150.869 29.3806 150.337 29.5025 149.716 29.5025C148.829 29.5025 148.186 29.2364 147.787 28.7042C147.388 28.1498 147.188 27.3736 147.188 26.3757ZM166.202 17.0616H161.977V32.3633H166.202V17.0616ZM170.692 21.5523L172.655 17.8932C172.345 17.4941 171.934 17.1947 171.424 16.9951C170.936 16.7955 170.415 16.6957 169.861 16.6957C169.063 16.6957 168.286 16.984 167.532 17.5606C166.778 18.115 166.169 18.869 165.703 19.8226C165.237 20.754 165.004 21.8295 165.004 23.0492L166.202 24.2467C166.202 23.5149 166.29 22.894 166.468 22.3839C166.667 21.8517 166.956 21.4414 167.333 21.1531C167.71 20.8649 168.164 20.7207 168.697 20.7207C169.14 20.7207 169.506 20.7983 169.794 20.9536C170.105 21.0866 170.404 21.2862 170.692 21.5523ZM182.335 32.6959C184.176 32.6959 185.75 32.3411 187.059 31.6315C188.389 30.8996 189.454 29.813 190.252 28.3715L186.493 27.2073C186.05 27.9391 185.484 28.4935 184.797 28.8705C184.131 29.2253 183.322 29.4027 182.368 29.4027C181.526 29.4027 180.805 29.2142 180.206 28.8372C179.607 28.4602 179.153 27.9169 178.842 27.2073C178.554 26.4976 178.41 25.6328 178.41 24.6127C178.432 23.5482 178.587 22.6611 178.876 21.9515C179.186 21.2197 179.618 20.6764 180.173 20.3215C180.749 19.9445 181.459 19.756 182.302 19.756C182.989 19.756 183.588 19.9113 184.098 20.2217C184.608 20.5322 184.996 20.9536 185.262 21.4858C185.551 22.018 185.695 22.6611 185.695 23.4151C185.695 23.5704 185.65 23.77 185.562 24.0139C185.495 24.2357 185.418 24.4131 185.329 24.5461L186.493 23.016H176.547V25.6771H190.252C190.274 25.5441 190.285 25.3667 190.285 25.1449C190.307 24.9231 190.319 24.7124 190.319 24.5129C190.319 22.8718 190.008 21.4747 189.387 20.3215C188.766 19.1462 187.857 18.2591 186.659 17.6604C185.484 17.0394 184.054 16.729 182.368 16.729C180.683 16.729 179.219 17.0616 177.977 17.7269C176.736 18.37 175.771 19.2903 175.083 20.4879C174.418 21.6632 174.085 23.0714 174.085 24.7124C174.085 26.3313 174.418 27.7395 175.083 28.937C175.771 30.1124 176.736 31.0327 177.977 31.698C179.219 32.3633 180.672 32.6959 182.335 32.6959ZM97.6192 59.5461L94.2263 61.9412C94.7363 63.0278 95.446 64.0368 96.3552 64.9682C97.2644 65.8996 98.3289 66.6426 99.5486 67.197C100.79 67.7292 102.121 67.9953 103.54 67.9953C104.605 67.9953 105.614 67.829 106.567 67.4963C107.543 67.1859 108.419 66.7313 109.195 66.1325C109.971 65.5116 110.581 64.7576 111.025 63.8705C111.468 62.9835 111.69 61.9744 111.69 60.8434C111.69 59.8455 111.524 58.9695 111.191 58.2155C110.881 57.4394 110.437 56.7741 109.861 56.2197C109.306 55.6431 108.674 55.1552 107.965 54.756C107.277 54.3569 106.556 54.0242 105.802 53.7581C104.627 53.3589 103.651 52.9708 102.875 52.5938C102.099 52.1947 101.522 51.7844 101.145 51.3631C100.768 50.9195 100.58 50.4095 100.58 49.8329C100.58 49.2563 100.813 48.7573 101.278 48.336C101.744 47.8925 102.443 47.6707 103.374 47.6707C104.084 47.6707 104.716 47.8149 105.27 48.1031C105.824 48.3693 106.312 48.7352 106.734 49.2009C107.177 49.6444 107.554 50.1434 107.865 50.6978L111.59 48.6354C111.191 47.8149 110.626 47.0276 109.894 46.2736C109.184 45.4974 108.286 44.8654 107.199 44.3775C106.135 43.8675 104.86 43.6124 103.374 43.6124C101.933 43.6124 100.624 43.8786 99.4488 44.4108C98.2956 44.9208 97.3753 45.6637 96.6878 46.6395C96.0226 47.5931 95.6899 48.7352 95.6899 50.0657C95.6899 51.1746 95.9006 52.1281 96.3219 52.9265C96.7433 53.7027 97.2755 54.368 97.9186 54.9224C98.5617 55.4546 99.2381 55.8981 99.9478 56.2529C100.68 56.5856 101.323 56.8517 101.877 57.0513C102.919 57.4505 103.795 57.8275 104.505 58.1823C105.237 58.5149 105.78 58.903 106.135 59.3465C106.512 59.7901 106.7 60.3777 106.7 61.1096C106.7 61.9523 106.401 62.6175 105.802 63.1054C105.204 63.5933 104.427 63.8372 103.474 63.8372C102.653 63.8372 101.888 63.6598 101.179 63.305C100.469 62.9502 99.8147 62.4512 99.2159 61.8081C98.6394 61.165 98.1071 60.411 97.6192 59.5461ZM115.635 46.1405C115.635 46.828 115.89 47.4046 116.4 47.8703C116.91 48.336 117.52 48.5688 118.229 48.5688C118.939 48.5688 119.538 48.336 120.026 47.8703C120.536 47.4046 120.791 46.828 120.791 46.1405C120.791 45.4309 120.536 44.8543 120.026 44.4108C119.538 43.9451 118.939 43.7122 118.229 43.7122C117.52 43.7122 116.91 43.9451 116.4 44.4108C115.89 44.8543 115.635 45.4309 115.635 46.1405ZM116.101 52.0616V67.3633H120.292V52.0616H116.101ZM148.15 57.5835C148.15 56.3416 147.973 55.2883 147.618 54.4234C147.285 53.5363 146.764 52.8711 146.055 52.4275C145.345 51.9618 144.425 51.729 143.294 51.729C142.251 51.729 141.32 51.9507 140.5 52.3943C139.701 52.8378 139.025 53.492 138.47 54.3569C138.138 53.492 137.605 52.8378 136.874 52.3943C136.142 51.9507 135.21 51.729 134.079 51.729C133.059 51.729 132.183 51.9507 131.452 52.3943C130.72 52.8378 130.132 53.4809 129.689 54.3236V52.0616H125.53V67.3633H129.689V58.0492C129.689 57.3839 129.799 56.8184 130.021 56.3527C130.243 55.8649 130.553 55.51 130.953 55.2883C131.352 55.0443 131.817 54.9224 132.35 54.9224C133.148 54.9224 133.725 55.1885 134.079 55.7207C134.434 56.2308 134.612 57.0069 134.612 58.0492V67.3633H138.903V58.0492C138.903 57.3839 139.014 56.8184 139.235 56.3527C139.457 55.8649 139.768 55.51 140.167 55.2883C140.566 55.0443 141.032 54.9224 141.564 54.9224C142.362 54.9224 142.939 55.1885 143.294 55.7207C143.649 56.2308 143.826 57.0069 143.826 58.0492V67.3633H148.15V57.5835ZM157.285 74.6815V52.0616H152.961V74.6815H157.285ZM169.859 59.7124C169.859 57.9605 169.516 56.4858 168.828 55.2883C168.141 54.0686 167.231 53.1483 166.1 52.5273C164.992 51.9064 163.794 51.5959 162.508 51.5959C161.199 51.5959 160.057 51.9286 159.082 52.5938C158.128 53.2591 157.385 54.2016 156.853 55.4213C156.343 56.6189 156.088 58.0492 156.088 59.7124C156.088 61.3535 156.343 62.7839 156.853 64.0036C157.385 65.2233 158.128 66.1658 159.082 66.831C160.057 67.4963 161.199 67.829 162.508 67.829C163.794 67.829 164.992 67.5185 166.1 66.8976C167.231 66.2766 168.141 65.3563 168.828 64.1366C169.516 62.9169 169.859 61.4422 169.859 59.7124ZM165.402 59.7124C165.402 60.6217 165.213 61.3979 164.836 62.041C164.459 62.6841 163.949 63.172 163.306 63.5046C162.685 63.8372 161.998 64.0036 161.244 64.0036C160.601 64.0036 159.969 63.8483 159.348 63.5379C158.749 63.2052 158.25 62.7173 157.851 62.0742C157.474 61.4311 157.285 60.6439 157.285 59.7124C157.285 58.781 157.474 57.9938 157.851 57.3507C158.25 56.7076 158.749 56.2308 159.348 55.9203C159.969 55.5877 160.601 55.4213 161.244 55.4213C161.998 55.4213 162.685 55.5877 163.306 55.9203C163.949 56.2529 164.459 56.7408 164.836 57.3839C165.213 58.027 165.402 58.8032 165.402 59.7124ZM173.737 41.417V67.3633H178.061V41.417H173.737ZM190.196 67.6959C192.037 67.6959 193.612 67.3411 194.92 66.6315C196.251 65.8996 197.315 64.813 198.113 63.3715L194.354 62.2073C193.911 62.9391 193.345 63.4935 192.658 63.8705C191.993 64.2253 191.183 64.4027 190.23 64.4027C189.387 64.4027 188.666 64.2142 188.067 63.8372C187.469 63.4602 187.014 62.9169 186.704 62.2073C186.415 61.4976 186.271 60.6328 186.271 59.6127C186.293 58.5482 186.449 57.6611 186.737 56.9515C187.047 56.2197 187.48 55.6764 188.034 55.3215C188.611 54.9445 189.32 54.756 190.163 54.756C190.851 54.756 191.449 54.9113 191.959 55.2217C192.469 55.5322 192.858 55.9536 193.124 56.4858C193.412 57.018 193.556 57.6611 193.556 58.4151C193.556 58.5704 193.512 58.77 193.423 59.0139C193.357 59.2357 193.279 59.4131 193.19 59.5461L194.354 58.016H184.408V60.6771H198.113C198.136 60.5441 198.147 60.3667 198.147 60.1449C198.169 59.9231 198.18 59.7124 198.18 59.5129C198.18 57.8718 197.869 56.4747 197.248 55.3215C196.628 54.1462 195.718 53.2591 194.521 52.6604C193.345 52.0394 191.915 51.729 190.23 51.729C188.544 51.729 187.081 52.0616 185.839 52.7269C184.597 53.37 183.632 54.2903 182.945 55.4879C182.279 56.6632 181.947 58.0714 181.947 59.7124C181.947 61.3313 182.279 62.7395 182.945 63.937C183.632 65.1124 184.597 66.0327 185.839 66.698C187.081 67.3633 188.533 67.6959 190.196 67.6959Z" fill="black"/>
<path fill-rule="evenodd" clip-rule="evenodd" d="M56.8203 11.8118C57.2508 11.7329 57.6944 11.6917 58.1477 11.6917C62.1888 11.6917 65.4647 14.9677 65.4647 19.0088C65.4647 23.0499 62.1888 26.3258 58.1477 26.3258C57.6944 26.3258 57.2508 26.2846 56.8203 26.2057V36.1958C67.4503 36.1958 75.7081 28.0823 75.7081 18.4885C75.7081 8.89473 67.4503 0.78125 56.8203 0.78125V11.8118Z" fill="#4E9FFF"/>
<path fill-rule="evenodd" clip-rule="evenodd" d="M38.7598 11.7441C39.0482 11.7095 39.3417 11.6917 39.6394 11.6917C43.6805 11.6917 46.9564 14.9677 46.9564 19.0088C46.9564 23.0499 43.6805 26.3258 39.6394 26.3258C39.3417 26.3258 39.0482 26.308 38.7598 26.2735V36.1958C49.3897 36.1958 57.6475 28.0823 57.6475 18.4885C57.6475 8.89473 49.3897 0.78125 38.7598 0.78125V11.7441Z" fill="#4E9FFF"/>
<path d="M0.984375 56.2639C0.984375 46.4845 8.91218 38.5566 18.6916 38.5566C28.4711 38.5566 36.3989 46.4844 36.3989 56.2639C36.3989 66.0433 28.4711 73.9711 18.6916 73.9711H0.984375V56.2639Z" fill="#FEC144"/>
<path d="M38.7598 38.5566H74.1743V73.9711L56.467 61.489L38.7598 73.9711V38.5566Z" fill="#8CD6FF"/>
<path d="M0.984375 0.78125H36.3989V22.6651L18.6916 36.1958L0.984375 22.6651V0.78125Z" fill="#FE7170"/>
</svg>
