<svg width="554" height="284" viewBox="0 0 554 284" fill="none" xmlns="http://www.w3.org/2000/svg">
<path d="M265.19 65.014C268.557 65.014 271.6 64.6083 274.318 63.797C277.036 62.9857 279.186 61.7687 280.768 60.1461C282.39 58.5235 283.202 56.4952 283.202 54.0612C283.202 51.8707 282.613 49.883 281.437 48.0981C280.301 46.3132 278.618 44.8934 276.386 43.8387C274.155 42.784 271.437 42.2566 268.233 42.2566C265.231 42.2566 262.594 42.8448 260.322 44.0213C258.051 45.1571 256.286 46.7392 255.029 48.7674C253.812 50.7551 253.203 53.0065 253.203 55.5216H262.635C262.635 54.0207 263.162 52.8037 264.217 51.8707C265.271 50.9377 266.61 50.4712 268.233 50.4712C269.328 50.4712 270.22 50.6537 270.91 51.0188C271.6 51.3434 272.127 51.8301 272.492 52.4792C272.857 53.1282 273.04 53.8584 273.04 54.6697C273.04 55.4405 272.857 56.1707 272.492 56.8603C272.127 57.5499 271.579 58.1584 270.849 58.6857C270.16 59.2131 269.328 59.639 268.354 59.9635C267.421 60.2475 266.367 60.3895 265.19 60.3895V65.014ZM267.746 86.6152C271.235 86.6152 274.216 86.0878 276.691 85.0331C279.165 83.9378 281.072 82.4572 282.41 80.5912C283.749 78.6846 284.418 76.494 284.418 74.0195C284.418 71.8696 283.952 70.0238 283.019 68.4823C282.086 66.9408 280.747 65.6833 279.003 64.7097C277.259 63.6956 275.21 62.9654 272.857 62.5192C270.545 62.0324 267.989 61.789 265.19 61.789V67.022C266.732 67.022 268.071 67.164 269.206 67.4479C270.342 67.7319 271.275 68.1578 272.005 68.7257C272.776 69.2531 273.344 69.8818 273.709 70.612C274.074 71.3422 274.257 72.1535 274.257 73.046C274.257 74.2224 273.993 75.2162 273.466 76.0275C272.938 76.8389 272.208 77.4271 271.275 77.7921C270.383 78.1572 269.328 78.3398 268.111 78.3398C266.975 78.3398 265.88 78.1167 264.825 77.6705C263.811 77.2242 263 76.5346 262.391 75.6016C261.783 74.6686 261.479 73.5125 261.479 72.1332H251.378C251.378 73.9993 251.743 75.8044 252.473 77.5488C253.244 79.2931 254.319 80.8549 255.698 82.2341C257.118 83.6133 258.842 84.6883 260.87 85.4591C262.898 86.2298 265.19 86.6152 267.746 86.6152ZM292.478 81.5039C292.478 83.0454 293.025 84.3638 294.12 85.4591C295.216 86.5543 296.575 87.102 298.197 87.102C299.901 87.102 301.28 86.5543 302.335 85.4591C303.39 84.3638 303.917 83.0454 303.917 81.5039C303.917 79.9624 303.39 78.644 302.335 77.5488C301.28 76.4535 299.901 75.9058 298.197 75.9058C296.575 75.9058 295.216 76.4535 294.12 77.5488C293.025 78.644 292.478 79.9624 292.478 81.5039Z" fill="#FE7170"/>
<path d="M225.194 66.2858C80.2802 70.2367 -5.58777 125.597 5.68335 171.287C22.4567 226.04 89.9254 243.577 132.524 253.241C227.979 274.898 328.97 272.807 423.458 249.416C463.003 239.626 511.787 225.178 540.728 189.837C562.952 162.7 554.032 70.4583 320.637 67.4968" stroke="black" stroke-width="0.7" stroke-linecap="round"/>
<path d="M238.989 30.254C235.905 25.405 231.693 21.1518 228.047 16.7451" stroke="black" stroke-width="0.7" stroke-linecap="round"/>
<path d="M267.905 0.482422V23.4995" stroke="black" stroke-width="0.7" stroke-linecap="round"/>
<path d="M308.457 16.3447C303.194 21.1024 298.308 25.7345 293.88 29.3877" stroke="black" stroke-width="0.7" stroke-linecap="round"/>
</svg>
