<svg width="553" height="259" viewBox="0 0 553 259" fill="none" xmlns="http://www.w3.org/2000/svg">
<path d="M252.595 60.4338L263.122 57.8173V90.7363H273.04V47.3514L252.595 51.4891V60.4338ZM286.535 86.5986C286.535 88.1401 287.083 89.4585 288.178 90.5538C289.274 91.6491 290.632 92.1967 292.255 92.1967C293.959 92.1967 295.338 91.6491 296.393 90.5538C297.447 89.4585 297.975 88.1401 297.975 86.5986C297.975 85.0571 297.447 83.7388 296.393 82.6435C295.338 81.5482 293.959 81.0006 292.255 81.0006C290.632 81.0006 289.274 81.5482 288.178 82.6435C287.083 83.7388 286.535 85.0571 286.535 86.5986Z" fill="#4E9FFF"/>
<path d="M225.193 67.7132C80.3054 72.1551 -5.90811 121.144 5.04749 161.015C21.4415 208.773 88.7658 223.646 131.283 231.806C226.555 250.091 327.523 247.574 422.135 226.479C461.733 217.65 510.596 204.685 539.768 173.588C562.169 149.71 553.881 69.1205 320.592 68.1217" stroke="black" stroke-width="0.7" stroke-linecap="round"/>
<path d="M238.989 30.7706C235.905 25.9216 231.693 21.6684 228.047 17.2617" stroke="black" stroke-width="0.7" stroke-linecap="round"/>
<path d="M267.905 0.999023V24.0161" stroke="black" stroke-width="0.7" stroke-linecap="round"/>
<path d="M308.457 16.8613C303.194 21.619 298.308 26.2511 293.88 29.9043" stroke="black" stroke-width="0.7" stroke-linecap="round"/>
</svg>
