<svg width="553" height="259" viewBox="0 0 553 259" fill="none" xmlns="http://www.w3.org/2000/svg">
<path d="M246.341 79.7363H282.424V70.3048H265.386L275.304 61.4209C277.13 59.8389 278.61 58.0946 279.746 56.188C280.882 54.2408 281.45 52.1111 281.45 49.7989C281.45 48.1763 281.105 46.5739 280.416 44.9919C279.726 43.4098 278.692 41.9697 277.312 40.6716C275.974 39.3329 274.29 38.2782 272.262 37.5075C270.234 36.6962 267.901 36.2905 265.264 36.2905C261.613 36.2905 258.51 37.041 255.955 38.5419C253.439 40.0428 251.553 42.0508 250.296 44.5659C249.038 47.081 248.409 49.8597 248.409 52.9022H258.51C258.51 51.3607 258.754 50.0017 259.24 48.8253C259.768 47.6489 260.518 46.7362 261.492 46.0871C262.506 45.4381 263.662 45.1136 264.96 45.1136C265.934 45.1136 266.786 45.2758 267.516 45.6003C268.246 45.8843 268.854 46.29 269.341 46.8173C269.828 47.3041 270.193 47.872 270.436 48.5211C270.68 49.1701 270.802 49.8192 270.802 50.4682C270.802 51.6041 270.578 52.679 270.132 53.6932C269.727 54.6668 269.098 55.6606 268.246 56.6748C267.435 57.6889 266.461 58.8247 265.325 60.0823L246.341 79.7363ZM292.175 75.5986C292.175 77.1401 292.722 78.4585 293.818 79.5538C294.913 80.6491 296.272 81.1967 297.894 81.1967C299.598 81.1967 300.977 80.6491 302.032 79.5538C303.087 78.4585 303.614 77.1401 303.614 75.5986C303.614 74.0571 303.087 72.7388 302.032 71.6435C300.977 70.5482 299.598 70.0006 297.894 70.0006C296.272 70.0006 294.913 70.5482 293.818 71.6435C292.722 72.7388 292.175 74.0571 292.175 75.5986Z" fill="#FEC144"/>
<path d="M225.64 67.7132C80.7532 72.1551 -5.46036 121.144 5.49525 161.015C21.8892 208.773 89.2135 223.646 131.731 231.806C227.003 250.091 327.97 247.574 422.583 226.479C462.181 217.65 511.044 204.685 540.216 173.588C562.617 149.71 554.329 69.1205 321.04 68.1217" stroke="black" stroke-width="0.7" stroke-linecap="round"/>
<path d="M238.656 30.7706C235.571 25.9216 231.36 21.6684 227.713 17.2617" stroke="black" stroke-width="0.7" stroke-linecap="round"/>
<path d="M267.571 0.999023V24.0161" stroke="black" stroke-width="0.7" stroke-linecap="round"/>
<path d="M308.123 16.8613C302.86 21.619 297.975 26.2511 293.546 29.9043" stroke="black" stroke-width="0.7" stroke-linecap="round"/>
</svg>
