<svg width="554" height="281" viewBox="0 0 554 281" fill="none" xmlns="http://www.w3.org/2000/svg">
<path d="M246.975 75.0964H286.04V66.3342H277.339L276.304 67.6729H260.605L269.794 54.9556V71.2629L268.637 71.9323V82.6416H279.347V40.0477H271.68L246.975 75.0964ZM295.73 78.5039C295.73 80.0454 296.277 81.3638 297.373 82.4591C298.468 83.5543 299.827 84.102 301.45 84.102C303.153 84.102 304.533 83.5543 305.587 82.4591C306.642 81.3638 307.169 80.0454 307.169 78.5039C307.169 76.9624 306.642 75.644 305.587 74.5488C304.533 73.4535 303.153 72.9058 301.45 72.9058C299.827 72.9058 298.468 73.4535 297.373 74.5488C296.277 75.644 295.73 76.9624 295.73 78.5039Z" fill="#8CD6FF"/>
<path d="M225.442 63.2858C80.5278 67.2367 -5.34021 122.597 5.93091 168.287C22.7042 223.04 90.1729 240.577 132.772 250.241C228.227 271.898 329.217 269.807 423.705 246.416C463.251 236.626 512.034 222.178 540.976 186.837C563.2 159.7 554.28 67.4583 320.884 64.4968" stroke="black" stroke-width="0.7" stroke-linecap="round"/>
<path d="M245.127 31.0919C242.042 26.2428 237.831 21.9897 234.185 17.583" stroke="black" stroke-width="0.7" stroke-linecap="round"/>
<path d="M274.043 1.32031V24.3374" stroke="black" stroke-width="0.7" stroke-linecap="round"/>
<path d="M314.595 17.1826C309.332 21.9403 304.446 26.5724 300.018 30.2256" stroke="black" stroke-width="0.7" stroke-linecap="round"/>
</svg>
